<svg width="52" height="52" viewBox="0 0 52 52" fill="none" xmlns="http://www.w3.org/2000/svg">
<path d="M10.8334 30.3334C6.04508 30.3334 2.16675 34.2117 2.16675 39C2.16675 43.7884 6.04508 47.6667 10.8334 47.6667C15.6217 47.6667 19.5001 43.7884 19.5001 39C19.5001 34.2117 15.6217 30.3334 10.8334 30.3334ZM13.0001 38.3067C13.0001 39.6284 12.2851 40.885 11.1584 41.5567L9.51175 42.5534C9.25175 42.7267 8.94841 42.7917 8.66675 42.7917C8.12508 42.7917 7.58341 42.51 7.28008 42.0117C6.82508 41.2534 7.06341 40.235 7.84341 39.78L9.49008 38.7834C9.64175 38.6967 9.75008 38.5017 9.75008 38.3284V36.3134C9.75008 35.4034 10.4867 34.6667 11.3751 34.6667C12.2634 34.6667 13.0001 35.4034 13.0001 36.2917V38.3067Z" fill="white"/>
<path d="M36.8332 8.66663H15.1666C8.66658 8.66663 4.33325 11.9166 4.33325 19.5V27.2133C4.33325 28.015 5.15659 28.5133 5.87159 28.1883C7.99492 27.2133 10.4433 26.845 13.0216 27.3C18.7199 28.3183 22.9016 33.605 22.7499 39.39C22.7283 40.3 22.5982 41.1883 22.3599 42.055C22.1866 42.7266 22.7283 43.355 23.4216 43.355H36.8332C43.3332 43.355 47.6666 40.105 47.6666 32.5216V19.5C47.6666 11.9166 43.3332 8.66663 36.8332 8.66663ZM25.9999 31.4166C23.0099 31.4166 20.5833 28.99 20.5833 26C20.5833 23.01 23.0099 20.5833 25.9999 20.5833C28.9899 20.5833 31.4166 23.01 31.4166 26C31.4166 28.99 28.9899 31.4166 25.9999 31.4166ZM41.7082 30.3333C41.7082 31.2216 40.9716 31.9583 40.0832 31.9583C39.1949 31.9583 38.4582 31.2216 38.4582 30.3333V21.6666C38.4582 20.7783 39.1949 20.0416 40.0832 20.0416C40.9716 20.0416 41.7082 20.7783 41.7082 21.6666V30.3333Z" fill="white"/>
</svg>
