<svg width="52" height="52" viewBox="0 0 52 52" fill="none" xmlns="http://www.w3.org/2000/svg">
<path d="M32.1751 8.55844V16.7918H28.9251V8.55844C28.9251 7.97344 28.4051 7.69177 28.0584 7.69177C27.9501 7.69177 27.8417 7.71344 27.7334 7.75677L10.5517 14.2351C9.40341 14.6684 8.66675 15.7518 8.66675 16.9868V18.4384C6.69508 19.9118 5.41675 22.2734 5.41675 24.9384V16.9868C5.41675 14.4084 6.99842 12.1118 9.40342 11.2018L26.6067 4.70177C27.0834 4.52844 27.5817 4.44177 28.0584 4.44177C30.2251 4.44177 32.1751 6.19677 32.1751 8.55844Z" fill="white"/>
<path d="M46.5831 31.4167V33.5834C46.5831 34.1684 46.1282 34.645 45.5215 34.6667H42.3581C41.2098 34.6667 40.1698 33.8217 40.0831 32.695C40.0181 32.0234 40.2782 31.395 40.7115 30.9617C41.1015 30.55 41.6431 30.3334 42.2281 30.3334H45.4998C46.1281 30.355 46.5831 30.8317 46.5831 31.4167Z" fill="white"/>
<path d="M10.8334 32.5C8.79675 32.5 6.91175 33.215 5.41675 34.4067C3.42341 35.9883 2.16675 38.4367 2.16675 41.1667C2.16675 42.7917 2.62175 44.33 3.42341 45.63C4.91841 48.1433 7.67008 49.8333 10.8334 49.8333C13.0217 49.8333 15.0151 49.0317 16.5317 47.6667C17.2034 47.1033 17.7884 46.41 18.2434 45.63C19.0451 44.33 19.5001 42.7917 19.5001 41.1667C19.5001 36.3783 15.6217 32.5 10.8334 32.5ZM7.41008 39.9967C6.78175 39.3683 6.78175 38.3283 7.41008 37.7C8.06008 37.0717 9.07841 37.0717 9.72841 37.7L10.8551 38.8483L11.9384 37.7433C12.5884 37.115 13.6067 37.115 14.2567 37.7433C14.8851 38.3933 14.8851 39.4117 14.2567 40.0617L13.1517 41.145L14.3001 42.2717C14.9284 42.9217 14.9284 43.94 14.3001 44.59C13.9751 44.8933 13.5634 45.045 13.1517 45.045C12.7401 45.045 12.3284 44.8933 12.0034 44.59L10.8551 43.4417L9.66342 44.6333C9.33842 44.9583 8.92675 45.11 8.51508 45.11C8.10342 45.11 7.69175 44.9583 7.36675 44.6333C6.73842 44.005 6.73842 42.965 7.36675 42.3367L8.55842 41.145L7.41008 39.9967Z" fill="white"/>
<path d="M42.2067 28.0583H44.4167C45.6084 28.0583 46.5834 27.0833 46.5834 25.8916V24.9383C46.5834 20.4533 42.9217 16.7916 38.4367 16.7916H13.5634C11.7217 16.7916 10.0317 17.3983 8.66675 18.4383C6.69508 19.9116 5.41675 22.2733 5.41675 24.9383V28.795C5.41675 29.6183 6.28341 30.1383 7.06341 29.8783C8.27675 29.4666 9.55508 29.25 10.8334 29.25C17.3984 29.25 22.7501 34.6016 22.7501 41.1666C22.7501 42.7266 22.3384 44.4383 21.6884 45.955C21.3417 46.735 21.8834 47.6666 22.7284 47.6666H38.4367C42.9217 47.6666 46.5834 44.005 46.5834 39.52V39.1083C46.5834 37.9166 45.6084 36.9416 44.4167 36.9416H42.5317C40.4517 36.9416 38.4584 35.6633 37.9167 33.6483C37.4834 32.0016 38.0034 30.3983 39.0868 29.3583C39.8884 28.535 40.9934 28.0583 42.2067 28.0583ZM30.3334 27.625H19.5001C18.6117 27.625 17.8751 26.8883 17.8751 26C17.8751 25.1116 18.6117 24.375 19.5001 24.375H30.3334C31.2217 24.375 31.9584 25.1116 31.9584 26C31.9584 26.8883 31.2217 27.625 30.3334 27.625Z" fill="white"/>
</svg>
