<svg width="52" height="52" viewBox="0 0 52 52" fill="none" xmlns="http://www.w3.org/2000/svg">
<path d="M35.0783 4.33337H16.9216C9.03492 4.33337 4.33325 9.03504 4.33325 16.9217V35.0567C4.33325 42.965 9.03492 47.6667 16.9216 47.6667H35.0566C42.9433 47.6667 47.6449 42.965 47.6449 35.0784V16.9217C47.6666 9.03504 42.9649 4.33337 35.0783 4.33337ZM16.7916 19.8034C16.7916 18.0484 18.2216 16.5967 19.9983 16.5967C21.7533 16.5967 23.2049 18.0267 23.2049 19.8034C23.2049 21.5584 21.7749 23.01 19.9983 23.01C18.2216 22.9884 16.7916 21.5584 16.7916 19.8034ZM19.1099 34.71C18.6983 34.71 18.2866 34.5584 17.9616 34.2334C17.3333 33.605 17.3333 32.5867 17.9616 31.9367L32.1533 17.745C32.7816 17.1167 33.8216 17.1167 34.4499 17.745C35.0783 18.3734 35.0783 19.4134 34.4499 20.0417L20.2583 34.2334C19.9333 34.5584 19.5216 34.71 19.1099 34.71ZM34.1683 35.4034C32.4133 35.4034 30.9616 33.9734 30.9616 32.1967C30.9616 30.4417 32.3916 28.99 34.1683 28.99C35.9233 28.99 37.3749 30.42 37.3749 32.1967C37.3749 33.9734 35.9449 35.4034 34.1683 35.4034Z" fill="white"/>
</svg>
