<svg width="224" height="269" viewBox="0 0 224 269" fill="none" xmlns="http://www.w3.org/2000/svg">
<path d="M294.556 140.737L284.456 122.549L253.795 67.2946C253.65 67.033 253.59 66.73 253.623 66.4301C253.656 66.1303 253.78 65.8493 253.978 65.6284C264.078 54.0069 267.554 36.017 258.343 18.2106C255.522 12.8001 251.226 8.37835 245.995 5.50186C221.559 -7.99766 196.993 5.28298 190.07 26.9302C189.982 27.2183 189.809 27.4697 189.574 27.6476C189.34 27.8255 189.057 27.9205 188.766 27.9187H111.852C109.823 27.9133 107.828 28.4646 106.069 29.517C104.31 30.5695 102.849 32.0857 101.833 33.913L91.7463 52.0653L73.9144 84.1973C72.8895 86.0601 71.3414 87.5522 69.4777 88.4735C67.614 89.3948 65.524 89.7011 63.4882 89.3514C53.1841 87.5722 41.8754 88.8007 30.4581 93.9265C21.6338 97.8733 10.9224 108.407 6.76142 117.388C-12.6996 159.426 16.2645 200.8 54.4738 200.8C60.6088 200.806 66.6996 199.719 72.4822 197.588C72.7834 197.471 73.1144 197.47 73.4164 197.584C73.7184 197.698 73.9718 197.919 74.1317 198.209L95.3168 236.37L105.404 254.551C106.416 256.375 107.873 257.89 109.627 258.944C111.381 259.997 113.37 260.552 115.396 260.552H179.338C179.627 260.552 179.909 260.648 180.142 260.826C180.375 261.003 180.548 261.254 180.634 261.541C182.852 268.523 186.533 274.907 191.411 280.23C196.289 285.553 202.243 289.683 208.842 292.322C215.441 294.96 222.521 296.042 229.571 295.489C236.621 294.935 243.465 292.76 249.609 289.121C255.752 285.482 261.042 280.469 265.097 274.445C269.152 268.42 271.87 261.535 273.055 254.285C274.24 247.035 273.862 239.602 271.949 232.522C270.037 225.443 266.637 218.893 261.994 213.346C261.803 213.124 261.684 212.845 261.655 212.548C261.626 212.251 261.687 211.952 261.832 211.694L284.456 170.92L294.556 152.747C295.57 150.921 296.104 148.85 296.104 146.742C296.104 144.634 295.57 142.563 294.556 140.737ZM213.128 31.4701C217.079 24.5085 226.134 21.0701 234.958 26.6972C235.929 27.3125 236.77 28.1268 237.429 29.0907C240.748 34.033 241.346 38.8482 240.355 43.0209C239.833 45.1617 238.876 47.1612 237.548 48.8844C236.219 50.6075 234.552 52.0144 232.656 53.0099C230.761 54.0054 228.682 54.5664 226.561 54.6551C224.439 54.7438 222.324 54.3581 220.358 53.524C218.392 52.6899 216.621 51.4268 215.164 49.8201C213.707 48.2133 212.599 46.3002 211.914 44.2099C211.228 42.1195 210.982 39.9006 211.192 37.7029C211.401 35.5051 212.062 33.3797 213.128 31.4701ZM85.9698 150.085C84.9516 156.461 82.1714 162.391 77.9685 167.151C73.7655 171.911 68.3214 175.297 62.3003 176.893C54.9625 178.835 46.6405 178.044 38.2914 173.85C33.6568 171.513 29.8302 167.742 27.3356 163.055C13.7598 137.426 31.1776 111.465 54.4874 111.465C55.8749 111.459 57.261 111.559 58.6348 111.761C64.1043 112.485 69.2956 114.688 73.6904 118.151C75.6497 119.684 77.4331 121.447 79.0054 123.404C82.549 127.803 84.9243 133.09 85.8951 138.739C86.2453 140.7 86.4202 142.69 86.4178 144.684C86.4205 146.501 86.2706 148.316 85.9698 150.106V150.085ZM92.1197 104.475L92.0857 104.439C91.6131 103.963 91.3069 103.336 91.2159 102.658C91.1249 101.98 91.2543 101.29 91.5834 100.697L115.246 58.0737C116.259 56.247 117.716 54.7299 119.471 53.6751C121.226 52.6203 123.218 52.0651 125.245 52.0653H173.622C174.219 52.0664 174.799 52.272 175.272 52.6503C175.745 53.0286 176.086 53.5586 176.24 54.1581C176.395 54.7578 176.355 55.3936 176.127 55.9674C175.899 56.5412 175.496 57.0209 174.98 57.3324L95.6494 104.948C95.0962 105.286 94.4521 105.426 93.8151 105.348C93.178 105.271 92.5827 104.979 92.1197 104.517V104.475ZM172.944 236.37H128.822C126.796 236.371 124.805 235.817 123.049 234.764C121.294 233.71 119.837 232.195 118.823 230.369L98.0048 192.864C97.6313 192.191 97.4817 191.409 97.5793 190.638C97.6768 189.868 98.016 189.152 98.5443 188.603C99.0726 188.054 99.7604 187.701 100.501 187.599C101.242 187.498 101.994 187.653 102.641 188.042L174.233 231.033C174.781 231.324 175.217 231.8 175.471 232.384C175.724 232.967 175.78 233.622 175.629 234.242C175.477 234.863 175.128 235.411 174.637 235.798C174.147 236.184 173.545 236.386 172.93 236.37H172.944ZM191.203 211.991C190.995 212.231 190.713 212.39 190.405 212.44C190.097 212.49 189.782 212.429 189.513 212.266L110.318 164.721C109.065 163.966 108.077 162.814 107.498 161.434C106.919 160.053 106.78 158.516 107.101 157.047C108.881 148.75 108.846 140.143 106.999 131.862C106.666 130.387 106.799 128.839 107.377 127.448C107.955 126.057 108.948 124.897 110.21 124.138L197.597 71.6439C198.697 70.9844 199.952 70.6587 201.22 70.7036C202.488 70.7485 203.719 71.1623 204.772 71.898C206.547 73.1521 208.423 74.2435 210.379 75.1599C211.566 75.7199 212.573 76.6235 213.28 77.7629C213.986 78.9022 214.363 80.2291 214.364 81.5849V196.67C214.364 196.983 214.264 197.288 214.08 197.536C213.896 197.784 213.637 197.961 213.345 198.039C204.858 200.465 197.185 205.295 191.183 211.991H191.203ZM226.012 272.131C219.343 272.131 212.947 269.376 208.231 264.471C203.515 259.566 200.866 252.913 200.866 245.976C200.866 239.039 203.515 232.387 208.231 227.482C212.947 222.576 219.343 219.821 226.012 219.821C227.443 219.821 228.872 219.951 230.281 220.209C236.551 221.243 242.212 224.709 246.125 229.909C250.038 235.109 251.912 241.657 251.371 248.236C250.83 254.816 247.914 260.938 243.209 265.371C238.504 269.804 232.36 272.22 226.012 272.131ZM267.73 152.733L243.246 196.853C242.894 197.486 242.349 197.977 241.696 198.249C241.044 198.52 240.323 198.556 239.649 198.35H239.601C239.032 198.175 238.532 197.812 238.178 197.317C237.823 196.822 237.632 196.221 237.633 195.604V97.1531C237.611 96.5134 237.798 95.8849 238.165 95.3706C238.531 94.8564 239.055 94.4869 239.65 94.3228C240.245 94.1587 240.876 94.2096 241.439 94.4673C242.002 94.725 242.465 95.1741 242.751 95.7411L267.73 140.751C268.736 142.575 269.264 144.642 269.26 146.745C269.257 148.848 268.722 150.912 267.71 152.733H267.73Z" fill="#02B5A7"/>
</svg>
