<svg width="15" height="15" viewBox="0 0 15 16" fill="none" xmlns="http://www.w3.org/2000/svg">
    <g clip-path="url(#clip0_312_1863)">
        <path
            d="M2.03906 8.59719H5.27677C5.37792 10.4693 5.97465 12.2809 7.00587 13.8466C5.71418 13.6437 4.52613 13.0185 3.62748 12.0687C2.72883 11.1189 2.17025 9.89813 2.03906 8.59719ZM2.03906 7.4149C2.17025 6.11397 2.72883 4.89318 3.62748 3.94341C4.52613 2.99363 5.71418 2.36842 7.00587 2.16553C5.97465 3.73124 5.37792 5.54283 5.27677 7.4149H2.03906ZM13.8029 7.4149H10.5652C10.464 5.54283 9.86728 3.73124 8.83606 2.16553C10.1278 2.36842 11.3158 2.99363 12.2144 3.94341C13.1131 4.89318 13.6717 6.11397 13.8029 7.4149ZM13.8029 8.59719C13.6717 9.89813 13.1131 11.1189 12.2144 12.0687C11.3158 13.0185 10.1278 13.6437 8.83606 13.8466C9.86728 12.2809 10.464 10.4693 10.5652 8.59719H13.8029ZM6.46083 8.59719H9.3811C9.2838 10.193 8.78126 11.7376 7.92097 13.0852C7.06067 11.7376 6.55813 10.193 6.46083 8.59719ZM6.46083 7.4149C6.55813 5.81911 7.06067 4.27448 7.92097 2.92692C8.78126 4.27448 9.2838 5.81911 9.3811 7.4149H6.46083Z"
            fill="#BAC8DC" />
    </g>
    <defs>
        <clipPath id="clip0_312_1863">
            <rect width="14.1875" height="14.1875" fill="white"
                transform="translate(0.820312 0.911621)" />
        </clipPath>
    </defs>
</svg>