<svg width="227" height="52" viewBox="0 0 227 52" fill="none" xmlns="http://www.w3.org/2000/svg">
<path d="M52.2395 24.6472L50.4489 21.5469L45.0131 12.1282C44.9874 12.0836 44.9767 12.0319 44.9826 11.9808C44.9884 11.9297 45.0105 11.8818 45.0456 11.8441C46.8362 9.86314 47.4524 6.79656 45.8194 3.76128C45.3194 2.83901 44.5577 2.08527 43.6304 1.59494C39.2981 -0.706192 34.943 1.55763 33.7155 5.24763C33.7001 5.29673 33.6693 5.33959 33.6277 5.36991C33.5861 5.40024 33.5359 5.41644 33.4845 5.41612H19.8487C19.4889 5.41521 19.1353 5.50919 18.8234 5.68858C18.5116 5.86798 18.2525 6.12644 18.0725 6.43791L16.2842 9.53217L13.1228 15.0094C12.9411 15.3269 12.6667 15.5813 12.3363 15.7383C12.0059 15.8954 11.6353 15.9476 11.2744 15.888C9.44765 15.5847 7.44277 15.7941 5.41865 16.6679C3.85422 17.3406 1.95525 19.1363 1.21756 20.6672C-2.2326 27.8329 2.90233 34.8856 9.67629 34.8856C10.7639 34.8865 11.8437 34.7013 12.8689 34.338C12.9223 34.3182 12.981 34.3179 13.0345 34.3373C13.0881 34.3567 13.133 34.3945 13.1614 34.4439L16.9172 40.9489L18.7054 44.048C18.885 44.359 19.1432 44.6172 19.4541 44.7968C19.7651 44.9764 20.1178 45.0709 20.4769 45.071H31.8129C31.8642 45.0709 31.9141 45.0872 31.9555 45.1175C31.9968 45.1478 32.0274 45.1906 32.0428 45.2395C32.436 46.4297 33.0885 47.5178 33.9533 48.4252C34.8181 49.3326 35.8736 50.0366 37.0436 50.4864C38.2135 50.9362 39.4687 51.1206 40.7186 51.0262C41.9685 50.9319 43.1818 50.5611 44.271 49.9408C45.3602 49.3204 46.298 48.466 47.0168 47.439C47.7356 46.4121 48.2175 45.2384 48.4276 44.0026C48.6377 42.7668 48.5708 41.4997 48.2317 40.2929C47.8926 39.0861 47.2898 37.9697 46.4668 37.0242C46.4328 36.9863 46.4118 36.9387 46.4066 36.8881C46.4014 36.8375 46.4124 36.7866 46.4379 36.7426L50.4489 29.7923L52.2395 26.6944C52.4193 26.3832 52.514 26.0302 52.514 25.6708C52.514 25.3114 52.4193 24.9584 52.2395 24.6472ZM37.8035 6.0215C38.5039 4.83482 40.1092 4.24871 41.6736 5.20791C41.8458 5.31279 41.9948 5.45161 42.1117 5.61591C42.7001 6.45837 42.806 7.27918 42.6303 7.99046C42.5378 8.35538 42.3681 8.69621 42.1327 8.98994C41.8972 9.28368 41.6015 9.52348 41.2655 9.69318C40.9295 9.86287 40.561 9.95851 40.1849 9.97363C39.8088 9.98874 39.4338 9.92299 39.0852 9.78082C38.7367 9.63864 38.4227 9.42334 38.1644 9.14944C37.9062 8.87555 37.7097 8.54944 37.5882 8.19312C37.4667 7.83681 37.423 7.45857 37.4602 7.08394C37.4973 6.70932 37.6144 6.34702 37.8035 6.0215ZM15.2601 26.2407C15.0796 27.3275 14.5867 28.3383 13.8416 29.1497C13.0964 29.9612 12.1313 30.5382 11.0638 30.8104C9.76294 31.1414 8.28756 31.0066 6.80738 30.2917C5.98573 29.8933 5.30733 29.2505 4.86508 28.4515C2.45827 24.0827 5.54621 19.6574 9.6787 19.6574C9.92469 19.6565 10.1704 19.6734 10.414 19.7079C11.3836 19.8313 12.304 20.2068 13.0831 20.7971C13.4305 21.0585 13.7467 21.359 14.0254 21.6926C14.6536 22.4424 15.0747 23.3436 15.2469 24.3066C15.3089 24.6408 15.3399 24.98 15.3395 25.32C15.34 25.6298 15.3134 25.9391 15.2601 26.2443V26.2407ZM16.3504 18.4659L16.3444 18.4599C16.2606 18.3787 16.2063 18.2718 16.1902 18.1563C16.174 18.0407 16.197 17.9231 16.2553 17.822L20.4504 10.5564C20.6299 10.245 20.8882 9.98637 21.1994 9.80657C21.5106 9.62677 21.8636 9.53213 22.223 9.53217H30.7997C30.9055 9.53236 31.0083 9.5674 31.0922 9.63189C31.176 9.69637 31.2364 9.78671 31.2638 9.88892C31.2911 9.99112 31.2841 10.0995 31.2437 10.1973C31.2033 10.2951 31.1319 10.3769 31.0403 10.43L16.9761 18.5465C16.8781 18.6041 16.7639 18.6281 16.6509 18.6148C16.538 18.6016 16.4325 18.5518 16.3504 18.4731V18.4659ZM30.6793 40.9489H22.8572C22.4979 40.9491 22.145 40.8546 21.8338 40.675C21.5226 40.4954 21.2642 40.2371 21.0846 39.9259L17.3937 33.5328C17.3275 33.4181 17.301 33.2847 17.3183 33.1534C17.3356 33.0221 17.3957 32.9001 17.4894 32.8064C17.583 32.7128 17.705 32.6526 17.8363 32.6353C17.9676 32.6181 18.1009 32.6446 18.2157 32.7108L30.908 40.039C31.0051 40.0887 31.0824 40.1699 31.1274 40.2693C31.1723 40.3687 31.1822 40.4804 31.1553 40.5861C31.1285 40.6919 31.0665 40.7853 30.9796 40.8512C30.8927 40.9172 30.786 40.9516 30.6769 40.9489H30.6793ZM33.9165 36.7931C33.8795 36.8342 33.8295 36.8612 33.775 36.8698C33.7204 36.8783 33.6646 36.8678 33.6168 36.8401L19.5767 28.7356C19.3545 28.6069 19.1793 28.4105 19.0767 28.1751C18.9741 27.9398 18.9494 27.6777 19.0063 27.4273C19.322 26.0131 19.3158 24.5459 18.9882 23.1344C18.9293 22.8829 18.9528 22.6191 19.0553 22.382C19.1578 22.1449 19.3339 21.947 19.5575 21.8177L35.0501 12.8695C35.245 12.7571 35.4674 12.7016 35.6923 12.7093C35.9171 12.7169 36.1353 12.7875 36.3221 12.9129C36.6367 13.1266 36.9693 13.3127 37.3161 13.4689C37.5266 13.5643 37.7051 13.7184 37.8304 13.9126C37.9556 14.1068 38.0223 14.333 38.0225 14.5641V34.1815C38.0226 34.2349 38.0049 34.2869 37.9722 34.3292C37.9395 34.3714 37.8937 34.4016 37.842 34.415C36.3373 34.8284 34.9771 35.6518 33.9129 36.7931H33.9165ZM40.0875 47.0447C38.9052 47.0447 37.7713 46.575 36.9352 45.7389C36.0992 44.9028 35.6295 43.7687 35.6295 42.5863C35.6295 41.4038 36.0992 40.2698 36.9352 39.4337C37.7713 38.5976 38.9052 38.1278 40.0875 38.1278C40.3413 38.1278 40.5946 38.15 40.8445 38.194C41.9561 38.3703 42.9597 38.9611 43.6534 39.8475C44.3471 40.7339 44.6794 41.8501 44.5835 42.9716C44.4875 44.0931 43.9705 45.1367 43.1364 45.8924C42.3023 46.648 41.2129 47.0598 40.0875 47.0447ZM47.4837 26.692L43.143 34.2128C43.0806 34.3206 42.9839 34.4044 42.8682 34.4507C42.7525 34.4969 42.6247 34.503 42.5052 34.4679H42.4968C42.3958 34.438 42.3073 34.3763 42.2444 34.2919C42.1815 34.2075 42.1476 34.105 42.1478 33.9998V17.2179C42.1439 17.1088 42.1772 17.0017 42.2421 16.914C42.3071 16.8264 42.3999 16.7634 42.5054 16.7354C42.6109 16.7074 42.7227 16.7161 42.8226 16.76C42.9225 16.804 43.0045 16.8805 43.0551 16.9772L47.4837 24.6496C47.662 24.9605 47.7555 25.3128 47.7549 25.6713C47.7543 26.0297 47.6595 26.3817 47.4801 26.692H47.4837Z" fill="#4447E2"/>
<path d="M73.53 29.1853V9.68826C73.529 9.61591 73.5424 9.54408 73.5694 9.47695C73.5965 9.40982 73.6366 9.34873 73.6874 9.29723C73.7382 9.24572 73.7988 9.20483 73.8655 9.17692C73.9323 9.14901 74.0039 9.13464 74.0763 9.13464H78.5421C78.6146 9.13448 78.6865 9.14872 78.7534 9.17655C78.8204 9.20437 78.8812 9.24522 78.9322 9.29673C78.9833 9.34823 79.0236 9.40937 79.0508 9.47658C79.0781 9.54379 79.0917 9.61575 79.0909 9.68826V29.1853C79.0909 29.3306 79.0332 29.4698 78.9305 29.5725C78.8278 29.6752 78.6886 29.7329 78.5433 29.7329H74.0763C73.9313 29.7326 73.7923 29.6748 73.6899 29.5721C73.5875 29.4694 73.53 29.3303 73.53 29.1853Z" fill="#4447E2"/>
<path d="M111.739 29.1865V17.4763C111.74 17.3537 111.699 17.2347 111.623 17.1381C111.548 17.0416 111.442 16.9731 111.323 16.9437C111.204 16.9143 111.079 16.9257 110.967 16.976C110.855 17.0263 110.764 17.1126 110.707 17.2211L104.249 29.4405C104.203 29.5283 104.134 29.6018 104.049 29.6534C103.964 29.7049 103.867 29.7324 103.768 29.7329H99.0893C98.9901 29.7324 98.8929 29.7049 98.8081 29.6534C98.7233 29.6018 98.6541 29.5283 98.6079 29.4405L92.1444 17.2199C92.0872 17.112 91.9956 17.0263 91.8841 16.9765C91.7726 16.9267 91.6477 16.9155 91.5291 16.9448C91.4106 16.9742 91.3053 17.0423 91.2299 17.1383C91.1545 17.2344 91.1134 17.3529 91.1131 17.4751V29.1865C91.1131 29.3318 91.0554 29.4711 90.9527 29.5737C90.85 29.6764 90.7108 29.7341 90.5655 29.7341H86.1009C85.9557 29.7341 85.8164 29.6764 85.7137 29.5737C85.611 29.4711 85.5533 29.3318 85.5533 29.1865V9.68948C85.5532 9.61753 85.5672 9.54625 85.5947 9.47974C85.6222 9.41323 85.6625 9.3528 85.7134 9.30192C85.7642 9.25104 85.8247 9.21071 85.8912 9.18324C85.9577 9.15578 86.029 9.14172 86.1009 9.14188H92.7786C92.8776 9.14208 92.9746 9.16918 93.0594 9.22026C93.1442 9.27135 93.2135 9.34451 93.26 9.43193L100.941 23.8261C100.988 23.9127 101.058 23.9851 101.143 24.0356C101.227 24.086 101.324 24.1127 101.423 24.1127C101.521 24.1127 101.618 24.086 101.703 24.0356C101.787 23.9851 101.857 23.9127 101.904 23.8261L109.594 9.42591C109.64 9.33841 109.709 9.26517 109.794 9.21407C109.879 9.16297 109.976 9.13594 110.075 9.13586H116.724C116.796 9.13602 116.868 9.1505 116.935 9.17846C117.001 9.20643 117.062 9.24733 117.112 9.2988C117.163 9.35027 117.203 9.4113 117.23 9.47836C117.258 9.54541 117.271 9.61717 117.27 9.68948V29.1865C117.27 29.3318 117.213 29.4711 117.11 29.5737C117.007 29.6764 116.868 29.7341 116.723 29.7341H112.287C112.142 29.7341 112.003 29.6764 111.9 29.5737C111.797 29.4711 111.739 29.3318 111.739 29.1865Z" fill="#4447E2"/>
<path d="M142.675 14.0904C142.675 14.1805 142.652 14.2693 142.61 14.3488C142.567 14.4282 142.506 14.496 142.431 14.546C142.356 14.596 142.27 14.6267 142.18 14.6354C142.09 14.6441 142 14.6305 141.916 14.5959C141.676 14.4984 141.418 14.3961 141.131 14.2877C140.489 14.047 139.764 13.82 138.957 13.6066C138.088 13.3792 137.208 13.1988 136.319 13.0662C135.352 12.9204 134.375 12.848 133.396 12.8495C132.594 12.8495 131.912 12.8744 131.351 12.9242C130.873 12.9626 130.397 13.0277 129.927 13.1191C129.613 13.1769 129.306 13.2697 129.012 13.3959C128.825 13.4778 128.651 13.5864 128.495 13.7185C128.39 13.8065 128.31 13.9201 128.263 14.0482C128.23 14.1449 128.212 14.2459 128.21 14.3479C128.21 14.648 128.36 14.9104 128.66 15.135C129.035 15.3986 129.45 15.6016 129.888 15.7368C130.484 15.9332 131.09 16.0987 131.703 16.2326C132.393 16.3867 133.125 16.5472 133.898 16.714C134.672 16.8809 135.471 17.0607 136.297 17.2532C137.121 17.4482 137.921 17.6757 138.695 17.9356C139.447 18.1861 140.181 18.4894 140.891 18.8431C141.545 19.1638 142.155 19.5684 142.705 20.0466C143.213 20.4924 143.63 21.0323 143.933 21.6365C144.243 22.2759 144.397 22.9794 144.383 23.6897C144.383 24.679 144.209 25.5286 143.859 26.2387C143.523 26.9296 143.046 27.5423 142.458 28.0368C141.851 28.5394 141.164 28.9372 140.427 29.2138C139.642 29.513 138.831 29.7414 138.005 29.8962C137.159 30.0563 136.302 30.1617 135.442 30.2116C134.578 30.2605 133.756 30.2854 132.976 30.2862C131.079 30.2987 129.185 30.1307 127.32 29.7843C125.886 29.5172 124.473 29.1434 123.094 28.6662C122.988 28.6276 122.896 28.5572 122.832 28.4646C122.767 28.3719 122.733 28.2616 122.733 28.1487V24.5129C122.733 24.4201 122.757 24.3288 122.802 24.2476C122.847 24.1664 122.912 24.098 122.99 24.0488C123.069 23.9996 123.159 23.9712 123.251 23.9663C123.344 23.9613 123.437 23.98 123.52 24.0206C124.767 24.6154 126.073 25.0766 127.417 25.3963C129.261 25.8368 131.151 26.0534 133.047 26.0413C134.014 26.0563 134.979 25.9935 135.936 25.8536C136.536 25.7681 137.122 25.6063 137.682 25.3722C138.102 25.1772 138.387 24.9646 138.536 24.7343C138.674 24.5413 138.752 24.3119 138.761 24.0748C138.758 23.906 138.716 23.7402 138.638 23.5906C138.56 23.441 138.448 23.3117 138.311 23.2131C137.94 22.9308 137.525 22.7128 137.082 22.568C136.488 22.3628 135.883 22.1928 135.269 22.0589C134.579 21.9032 133.847 21.7484 133.073 21.5943C132.298 21.4403 131.501 21.2726 130.681 21.0913C129.862 20.9123 129.065 20.7001 128.29 20.4546C127.54 20.2193 126.807 19.9339 126.095 19.6001C125.441 19.2984 124.831 18.9102 124.281 18.4459C123.771 18.0192 123.351 17.4961 123.043 16.9066C122.733 16.2753 122.579 15.5785 122.593 14.8751C122.593 13.9668 122.754 13.1825 123.075 12.5222C123.385 11.8765 123.826 11.3026 124.371 10.8373C124.936 10.3609 125.574 9.97892 126.26 9.70594C126.989 9.41115 127.744 9.1855 128.515 9.03197C129.307 8.87144 130.108 8.76089 130.914 8.701C131.724 8.64243 132.494 8.61274 133.223 8.61194C134.025 8.61194 134.847 8.65206 135.689 8.73229C136.53 8.81253 137.362 8.92526 138.184 9.07048C139.003 9.2149 139.795 9.38219 140.56 9.57235C141.174 9.72479 141.751 9.88526 142.292 10.0538C142.404 10.0878 142.503 10.1571 142.573 10.2514C142.643 10.3456 142.681 10.4599 142.681 10.5773L142.675 14.0904Z" fill="#4447E2"/>
<path d="M176.28 19.4476C176.28 21.2128 175.955 22.7746 175.305 24.1329C174.665 25.4744 173.708 26.6397 172.517 27.5281C171.307 28.4379 169.84 29.1252 168.117 29.5897C166.394 30.0543 164.458 30.2866 162.309 30.2866C160.16 30.2866 158.219 30.0543 156.486 29.5897C154.753 29.1252 153.276 28.4379 152.056 27.5281C150.856 26.6405 149.888 25.4746 149.238 24.1305C148.578 22.777 148.249 21.2152 148.249 19.4452C148.249 17.6752 148.578 16.1139 149.238 14.7611C149.889 13.4204 150.857 12.2578 152.056 11.3732C153.275 10.4633 154.751 9.77613 156.486 9.31157C158.22 8.84701 160.162 8.61152 162.309 8.6051C164.458 8.6051 166.394 8.83738 168.117 9.30194C169.84 9.7665 171.307 10.4569 172.517 11.3732C173.708 12.2611 174.665 13.4266 175.305 14.7683C175.955 16.1155 176.28 17.6752 176.28 19.4476ZM170.658 19.4476C170.656 18.6661 170.532 17.8896 170.29 17.1465C170.033 16.3622 169.586 15.6541 168.987 15.0861C168.363 14.4763 167.511 13.9812 166.431 13.6009C165.351 13.2206 163.977 13.0309 162.309 13.0317C161.318 13.0216 160.329 13.1111 159.356 13.2988C158.594 13.4439 157.853 13.6866 157.153 14.021C156.577 14.2972 156.049 14.6628 155.588 15.1041C154.803 15.8667 154.267 16.8495 154.051 17.9228C153.948 18.4233 153.895 18.9329 153.894 19.444C153.895 19.9627 153.948 20.48 154.051 20.9881C154.156 21.5086 154.335 22.0112 154.583 22.4805C154.847 22.9715 155.186 23.4182 155.588 23.8044C156.049 24.2427 156.577 24.6043 157.153 24.8755C157.854 25.2087 158.594 25.4514 159.356 25.5976C160.329 25.7843 161.319 25.8722 162.309 25.86C163.977 25.86 165.351 25.6702 166.431 25.2907C167.511 24.9112 168.363 24.4166 168.987 23.8068C169.586 23.2383 170.034 22.5298 170.29 21.7452C170.532 21.0032 170.656 20.228 170.658 19.4476Z" fill="#4447E2"/>
<path d="M186.896 14.0754V16.5631C186.896 16.7084 186.954 16.8476 187.056 16.9503C187.159 17.053 187.298 17.1107 187.443 17.1107H199.734C199.879 17.1107 200.018 17.1684 200.121 17.2711C200.224 17.3738 200.281 17.5131 200.281 17.6583V20.956C200.281 21.1012 200.224 21.2405 200.121 21.3432C200.018 21.4459 199.879 21.5036 199.734 21.5036H187.443C187.298 21.5036 187.159 21.5613 187.056 21.664C186.954 21.7667 186.896 21.906 186.896 22.0512V29.1869C186.896 29.3321 186.838 29.4714 186.736 29.5741C186.633 29.6768 186.494 29.7345 186.348 29.7345H181.883C181.737 29.7345 181.598 29.6768 181.495 29.5741C181.393 29.4714 181.335 29.3321 181.335 29.1869V9.68982C181.335 9.61786 181.349 9.54658 181.376 9.48007C181.404 9.41356 181.444 9.35313 181.495 9.30225C181.546 9.25137 181.606 9.21104 181.673 9.18357C181.739 9.15611 181.811 9.14205 181.883 9.14221H200.468C200.613 9.14221 200.752 9.19991 200.855 9.3026C200.958 9.4053 201.015 9.54458 201.015 9.68982V12.9863C201.015 13.1315 200.958 13.2708 200.855 13.3735C200.752 13.4762 200.613 13.5339 200.468 13.5339H187.443C187.299 13.5339 187.161 13.5907 187.058 13.6921C186.956 13.7935 186.897 13.9313 186.896 14.0754Z" fill="#4447E2"/>
<path d="M217.362 14.1682V29.1893C217.361 29.3347 217.303 29.4739 217.2 29.5766C217.098 29.6793 216.958 29.7369 216.813 29.7369H212.348C212.203 29.7369 212.063 29.6793 211.961 29.5766C211.858 29.4739 211.8 29.3347 211.799 29.1893V14.1682C211.799 14.0229 211.742 13.8836 211.639 13.7809C211.536 13.6782 211.397 13.6206 211.252 13.6206H203.609C203.464 13.6206 203.325 13.5629 203.222 13.4602C203.119 13.3575 203.062 13.2182 203.062 13.0729V9.69226C203.062 9.54702 203.119 9.40774 203.222 9.30504C203.325 9.20235 203.464 9.14465 203.609 9.14465H225.568C225.713 9.14465 225.852 9.20235 225.955 9.30504C226.057 9.40774 226.115 9.54702 226.115 9.69226V13.079C226.115 13.2242 226.057 13.3635 225.955 13.4662C225.852 13.5689 225.713 13.6266 225.568 13.6266H217.907C217.763 13.6272 217.625 13.6843 217.523 13.7857C217.421 13.887 217.363 14.0244 217.362 14.1682Z" fill="#4447E2"/>
<path d="M78.5124 35.7371C79.1544 35.7332 79.7953 35.7921 80.4258 35.9128C80.9239 36.0101 81.4145 36.1424 81.894 36.3088C81.9392 36.3241 81.9786 36.3533 82.0064 36.3922C82.0343 36.431 82.0492 36.4776 82.0492 36.5254V37.7013C82.0492 37.7398 82.0395 37.7777 82.021 37.8115C82.0024 37.8453 81.9756 37.8738 81.9431 37.8945C81.9106 37.9151 81.8733 37.9272 81.8349 37.9296C81.7964 37.9321 81.758 37.9247 81.7231 37.9083C81.6196 37.8589 81.5089 37.8096 81.3946 37.7614C81.1365 37.6524 80.8716 37.5603 80.6015 37.4858C80.3001 37.4043 79.9938 37.3416 79.6845 37.2981C79.3434 37.2489 78.9991 37.2248 78.6544 37.2259C78.2615 37.2211 77.869 37.2537 77.4823 37.3234C77.1873 37.3754 76.8996 37.4627 76.6255 37.5833C76.4107 37.6768 76.2127 37.8049 76.0394 37.9624C75.895 38.096 75.7731 38.2521 75.6784 38.4246C75.5918 38.5807 75.5297 38.7491 75.4943 38.924C75.4613 39.0869 75.4443 39.2526 75.4437 39.4187C75.4449 39.5705 75.4594 39.7219 75.487 39.8712C75.518 40.0413 75.5727 40.2062 75.6495 40.3611C75.7365 40.5336 75.8493 40.6919 75.9841 40.8304C76.146 40.9939 76.3349 41.1282 76.5424 41.2276C76.8056 41.3547 77.0838 41.4482 77.3704 41.5056C77.7495 41.5808 78.1355 41.6159 78.522 41.6103C78.7459 41.6103 78.942 41.6031 79.1081 41.5898C79.2742 41.5766 79.427 41.5574 79.5642 41.5333C79.6947 41.5109 79.8241 41.482 79.9517 41.4466L80.1599 41.3877C80.2078 41.374 80.2499 41.3451 80.2799 41.3054C80.3098 41.2656 80.326 41.2172 80.3259 41.1674V40.7221C80.3258 40.6921 80.3197 40.6624 80.3081 40.6347C80.2964 40.607 80.2795 40.5819 80.2581 40.5608C80.2368 40.5396 80.2115 40.5229 80.1837 40.5116C80.1559 40.5002 80.1261 40.4945 80.0961 40.4946H78.4342C78.3736 40.4943 78.3157 40.4701 78.2729 40.4273C78.23 40.3845 78.2059 40.3265 78.2055 40.266V39.1888C78.2059 39.1283 78.23 39.0703 78.2729 39.0275C78.3157 38.9847 78.3736 38.9605 78.4342 38.9602H81.989C82.0497 38.9602 82.1078 38.9842 82.1507 39.0271C82.1936 39.07 82.2177 39.1282 82.2177 39.1888V42.3721C82.2176 42.4211 82.2019 42.4687 82.1729 42.5081C82.1439 42.5475 82.1031 42.5766 82.0564 42.5912C81.8482 42.6562 81.6196 42.7115 81.3741 42.7705C81.0624 42.8403 80.7423 42.9005 80.4114 42.9498C80.0804 42.9992 79.7483 43.0365 79.415 43.0642C79.0816 43.0918 78.7675 43.1051 78.4727 43.1051C78.0298 43.1063 77.5874 43.0753 77.149 43.0124C76.7472 42.9565 76.3519 42.8618 75.9684 42.7296C75.6169 42.6109 75.2814 42.4492 74.9696 42.2482C74.6761 42.0576 74.4163 41.8197 74.2006 41.5441C73.9827 41.2635 73.8153 40.9471 73.706 40.609C73.5837 40.2263 73.5244 39.8264 73.5303 39.4247C73.5246 39.0229 73.5865 38.623 73.7132 38.2416C73.8285 37.9018 74.002 37.5846 74.2259 37.3041C74.4493 37.0283 74.7159 36.7906 75.0153 36.6C75.3333 36.4001 75.6738 36.2385 76.0298 36.1186C76.4142 35.9868 76.8103 35.8921 77.2127 35.8358C77.643 35.7713 78.0774 35.7384 78.5124 35.7371Z" fill="#4447E2"/>
<path d="M104.435 42.9253H103.001C102.94 42.9253 102.882 42.9012 102.839 42.8583C102.796 42.8154 102.772 42.7573 102.772 42.6966V36.1507C102.772 36.09 102.796 36.0319 102.839 35.989C102.882 35.9461 102.94 35.922 103.001 35.922H107.512C107.95 35.913 108.387 35.9661 108.81 36.0797C109.127 36.1657 109.423 36.3188 109.676 36.5286C109.894 36.7171 110.059 36.9582 110.157 37.229C110.261 37.5226 110.312 37.8323 110.308 38.1437C110.315 38.4072 110.274 38.6697 110.187 38.9188C110.111 39.1272 109.997 39.3198 109.851 39.4868C109.709 39.6462 109.543 39.7816 109.358 39.8876C109.26 39.9454 109.157 39.9971 109.053 40.0453C109.02 40.0595 108.992 40.081 108.969 40.1082C108.946 40.1354 108.93 40.1674 108.922 40.2018C108.914 40.2362 108.914 40.2721 108.922 40.3065C108.93 40.3409 108.946 40.3731 108.968 40.4003L110.751 42.551C110.778 42.5844 110.796 42.625 110.801 42.668C110.807 42.7109 110.8 42.7546 110.781 42.7938C110.763 42.833 110.734 42.8662 110.697 42.8895C110.661 42.9128 110.618 42.9252 110.575 42.9253H108.956C108.923 42.9255 108.889 42.9181 108.859 42.9037C108.828 42.8894 108.801 42.8684 108.779 42.8423L106.796 40.4292C106.775 40.4033 106.748 40.3825 106.717 40.3682C106.686 40.3538 106.653 40.3463 106.619 40.3461H104.89C104.829 40.3461 104.771 40.3702 104.728 40.4131C104.686 40.456 104.661 40.5142 104.661 40.5748V42.6966C104.661 42.7568 104.637 42.8144 104.595 42.8571C104.553 42.8999 104.495 42.9244 104.435 42.9253ZM108.399 38.1341C108.402 38.0163 108.384 37.899 108.346 37.7875C108.31 37.6923 108.245 37.6109 108.16 37.5552C108.052 37.4886 107.931 37.4444 107.806 37.4252C107.623 37.3956 107.438 37.3819 107.252 37.3843H104.89C104.829 37.3843 104.771 37.4084 104.728 37.4513C104.686 37.4941 104.661 37.5523 104.661 37.6129V38.6552C104.661 38.7158 104.686 38.774 104.728 38.8169C104.771 38.8598 104.829 38.8839 104.89 38.8839H107.25C107.435 38.8863 107.621 38.8726 107.804 38.8429C107.929 38.8238 108.049 38.7796 108.157 38.713C108.243 38.6572 108.308 38.5759 108.344 38.4807C108.382 38.3693 108.401 38.252 108.399 38.1341Z" fill="#4447E2"/>
<path d="M141.486 39.4233C141.497 39.9722 141.384 40.5165 141.155 41.0156C140.938 41.472 140.613 41.8683 140.207 42.1698C139.758 42.4969 139.25 42.735 138.711 42.8714C137.412 43.1875 136.055 43.1875 134.756 42.8714C134.214 42.7353 133.703 42.4971 133.25 42.1698C132.84 41.869 132.51 41.4728 132.287 41.0156C132.066 40.5137 131.952 39.9712 131.952 39.4227C131.952 38.8742 132.066 38.3317 132.287 37.8299C132.51 37.3726 132.84 36.9765 133.25 36.6757C133.703 36.3483 134.214 36.1102 134.756 35.974C136.055 35.6579 137.412 35.6579 138.711 35.974C139.25 36.1104 139.758 36.3486 140.207 36.6757C140.612 36.9775 140.938 37.3737 141.155 37.8299C141.384 38.3294 141.497 38.874 141.486 39.4233ZM139.575 39.4233C139.576 39.1575 139.535 38.8932 139.455 38.6398C139.368 38.3733 139.215 38.1326 139.012 37.9394C138.762 37.7103 138.465 37.5382 138.142 37.4351C137.689 37.2929 137.216 37.2274 136.741 37.2413C136.404 37.2369 136.068 37.2667 135.736 37.3304C135.477 37.3799 135.226 37.4629 134.988 37.5771C134.793 37.6719 134.614 37.7966 134.457 37.9466C134.189 38.2068 134.007 38.5427 133.935 38.9094C133.9 39.0797 133.882 39.2531 133.882 39.4269C133.882 39.6032 133.9 39.779 133.935 39.9517C133.971 40.1282 134.032 40.2988 134.115 40.4584C134.206 40.6255 134.321 40.7777 134.457 40.9097C134.614 41.0572 134.793 41.1791 134.988 41.2707C135.226 41.3824 135.478 41.4633 135.736 41.5114C136.068 41.5751 136.404 41.605 136.741 41.6005C137.216 41.6144 137.689 41.5489 138.142 41.4067C138.465 41.3036 138.762 41.1316 139.012 40.9025C139.215 40.7092 139.368 40.4685 139.455 40.202C139.535 39.9502 139.576 39.6875 139.575 39.4233Z" fill="#4447E2"/>
<path d="M169.307 41.4586C169.115 41.7869 168.848 42.0646 168.527 42.2685C168.128 42.5229 167.69 42.7088 167.23 42.8185C166.032 43.0881 164.789 43.0881 163.59 42.8185C163.129 42.7104 162.689 42.5253 162.288 42.2709C161.968 42.067 161.7 41.7893 161.509 41.461C161.337 41.1594 161.248 40.8184 161.249 40.4717V36.0559C161.249 35.9954 161.273 35.9374 161.316 35.8946C161.359 35.8518 161.417 35.8276 161.477 35.8273H162.906C162.966 35.8276 163.024 35.8518 163.067 35.8946C163.11 35.9374 163.134 35.9954 163.134 36.0559V39.7941C163.133 40.0186 163.163 40.2423 163.223 40.4584C163.283 40.6687 163.399 40.8585 163.559 41.0072C163.759 41.1827 163.996 41.31 164.252 41.3791C164.63 41.4808 165.021 41.527 165.412 41.5163C165.801 41.5269 166.189 41.4806 166.564 41.3791C166.82 41.3097 167.056 41.1825 167.255 41.0072C167.415 40.8587 167.53 40.6687 167.588 40.4584C167.647 40.2419 167.676 40.0184 167.675 39.7941V36.0559C167.675 35.9954 167.699 35.9374 167.742 35.8946C167.785 35.8518 167.843 35.8276 167.903 35.8273H169.338C169.398 35.8276 169.456 35.8518 169.499 35.8946C169.542 35.9374 169.566 35.9954 169.567 36.0559V40.4717C169.567 40.8176 169.477 41.1577 169.307 41.4586Z" fill="#4447E2"/>
<path d="M198.338 38.3123C198.341 38.6395 198.289 38.9648 198.185 39.2751C198.086 39.5647 197.917 39.8254 197.693 40.0345C197.439 40.2622 197.139 40.4318 196.813 40.5316C196.387 40.66 195.943 40.7201 195.498 40.7097H192.588C192.527 40.7097 192.469 40.7337 192.426 40.7766C192.383 40.8194 192.359 40.8776 192.358 40.9384V42.6931C192.358 42.7537 192.334 42.8119 192.291 42.8548C192.248 42.8977 192.19 42.9218 192.13 42.9218H190.696C190.636 42.9218 190.578 42.8977 190.535 42.8548C190.492 42.8119 190.468 42.7537 190.468 42.6931V36.1508C190.468 36.0901 190.492 36.0319 190.535 35.9891C190.578 35.9462 190.636 35.9221 190.696 35.9221H195.493C195.938 35.9122 196.382 35.9715 196.809 36.0978C197.135 36.1954 197.435 36.3643 197.688 36.5924C197.912 36.8007 198.081 37.0606 198.18 37.3495C198.286 37.6593 198.34 37.9848 198.338 38.3123ZM196.426 38.3436C196.429 38.2001 196.406 38.0573 196.357 37.9223C196.312 37.8062 196.233 37.7061 196.131 37.6347C196.006 37.5521 195.866 37.4956 195.718 37.4686C195.512 37.4303 195.301 37.4125 195.091 37.4157H192.588C192.527 37.4157 192.469 37.4397 192.426 37.4826C192.383 37.5254 192.359 37.5836 192.358 37.6443V38.9911C192.359 39.0518 192.383 39.11 192.426 39.1528C192.469 39.1957 192.527 39.2197 192.588 39.2197H195.091C195.301 39.2225 195.511 39.208 195.718 39.1764C195.865 39.156 196.005 39.1056 196.131 39.0284C196.232 38.9629 196.311 38.868 196.357 38.7564C196.406 38.6244 196.43 38.4843 196.426 38.3436Z" fill="#4447E2"/>
</svg>
