<svg width="15" height="15" viewBox="0 0 15 16" fill="none" xmlns="http://www.w3.org/2000/svg">
    <g clip-path="url(#clip0_312_1866)">
        <path
            d="M7.5599 13.9154C4.295 13.9154 1.64844 11.2689 1.64844 8.00399C1.64844 4.73909 4.295 2.09253 7.5599 2.09253C10.8248 2.09253 13.4714 4.73909 13.4714 8.00399C13.4714 11.2689 10.8248 13.9154 7.5599 13.9154ZM5.72143 8.69563L5.72912 8.69149L6.24341 10.3881C6.30962 10.5719 6.40066 10.605 6.5112 10.5897C6.62234 10.5749 6.68086 10.5152 6.75357 10.4454L7.45585 9.76678L8.96327 10.8829C9.23875 11.0348 9.43678 10.9562 9.50536 10.6275L10.4849 6.00355C10.5931 5.5732 10.4039 5.40058 10.0699 5.53773L4.31628 7.76044C3.92376 7.91768 3.92612 8.13759 4.24534 8.23512L5.72143 8.69622V8.69563Z"
            fill="#BAC8DC" />
    </g>
    <defs>
        <clipPath id="clip0_312_1866">
            <rect width="14.1875" height="14.1875" fill="white"
                transform="translate(0.46875 0.910645)" />
        </clipPath>
    </defs>
</svg>