<svg width="50" height="50" viewBox="0 0 50 50" fill="none" xmlns="http://www.w3.org/2000/svg">
<path d="M44.7915 32.2916C45.3748 32.2916 45.8332 32.75 45.8332 33.3333V35.4166C45.8332 38.875 43.0415 41.6666 39.5832 41.6666C39.5832 38.2291 36.7707 35.4166 33.3332 35.4166C29.8957 35.4166 27.0832 38.2291 27.0832 41.6666H22.9165C22.9165 38.2291 20.104 35.4166 16.6665 35.4166C13.229 35.4166 10.4165 38.2291 10.4165 41.6666C6.95817 41.6666 4.1665 38.875 4.1665 35.4166V31.25C4.1665 30.1041 5.104 29.1666 6.24984 29.1666H26.0415C28.9165 29.1666 31.2498 26.8333 31.2498 23.9583V12.5C31.2498 11.3541 32.1873 10.4166 33.3332 10.4166H35.0832C36.5832 10.4166 37.9582 11.2291 38.7082 12.5208L40.0415 14.8541C40.229 15.1875 39.979 15.625 39.5832 15.625C36.7082 15.625 34.3748 17.9583 34.3748 20.8333V27.0833C34.3748 29.9583 36.7082 32.2916 39.5832 32.2916H44.7915Z" fill="white"/>
<path d="M16.6667 45.8333C18.9679 45.8333 20.8333 43.9679 20.8333 41.6667C20.8333 39.3655 18.9679 37.5 16.6667 37.5C14.3655 37.5 12.5 39.3655 12.5 41.6667C12.5 43.9679 14.3655 45.8333 16.6667 45.8333Z" fill="white"/>
<path d="M33.3332 45.8333C35.6344 45.8333 37.4998 43.9679 37.4998 41.6667C37.4998 39.3655 35.6344 37.5 33.3332 37.5C31.032 37.5 29.1665 39.3655 29.1665 41.6667C29.1665 43.9679 31.032 45.8333 33.3332 45.8333Z" fill="white"/>
<path d="M45.8333 26.1042V29.1667H39.5833C38.4375 29.1667 37.5 28.2292 37.5 27.0833V20.8333C37.5 19.6875 38.4375 18.75 39.5833 18.75H42.2708L45.2917 24.0417C45.6458 24.6667 45.8333 25.375 45.8333 26.1042Z" fill="white"/>
<path d="M27.2498 4.16663H11.854C8.12484 4.16663 4.99984 6.83329 4.31234 10.375H13.4165C14.2082 10.375 14.8332 11.0208 14.8332 11.8125C14.8332 12.6041 14.2082 13.2291 13.4165 13.2291H4.1665V16.1041H9.58317C10.3748 16.1041 11.0207 16.75 11.0207 17.5416C11.0207 18.3333 10.3748 18.9583 9.58317 18.9583H4.1665V21.8333H5.77067C6.56234 21.8333 7.20817 22.4791 7.20817 23.2708C7.20817 24.0625 6.56234 24.6875 5.77067 24.6875H4.1665V25.1666C4.1665 26.3125 5.104 27.25 6.24984 27.25H25.3123C27.4373 27.25 29.1665 25.5208 29.1665 23.3958V6.08329C29.1665 5.02079 28.3123 4.16663 27.2498 4.16663Z" fill="white"/>
<path d="M4.31266 10.375H4.00016H1.9585C1.16683 10.375 0.520996 11.0208 0.520996 11.8125C0.520996 12.6042 1.16683 13.2292 1.9585 13.2292H3.85433H4.16683V11.8542C4.16683 11.3542 4.22933 10.8542 4.31266 10.375Z" fill="white"/>
<path d="M3.85433 16.1041H1.9585C1.16683 16.1041 0.520996 16.75 0.520996 17.5416C0.520996 18.3333 1.16683 18.9583 1.9585 18.9583H3.85433H4.16683V16.1041H3.85433Z" fill="white"/>
<path d="M3.85433 21.8333H1.9585C1.16683 21.8333 0.520996 22.4791 0.520996 23.2708C0.520996 24.0624 1.16683 24.6874 1.9585 24.6874H3.85433H4.16683V21.8333H3.85433Z" fill="white"/>
</svg>
