<svg width="50" height="50" viewBox="0 0 50 50" fill="none" xmlns="http://www.w3.org/2000/svg">
<path d="M16.875 22.5C19.0299 22.5 21.0965 21.644 22.6202 20.1202C24.144 18.5965 25 16.5299 25 14.375C25 12.2201 24.144 10.1535 22.6202 8.62976C21.0965 7.10602 19.0299 6.25 16.875 6.25C14.7201 6.25 12.6535 7.10602 11.1298 8.62976C9.60602 10.1535 8.75 12.2201 8.75 14.375C8.75 16.5299 9.60602 18.5965 11.1298 20.1202C12.6535 21.644 14.7201 22.5 16.875 22.5ZM42.5 16.25C42.5 17.9076 41.8415 19.4973 40.6694 20.6694C39.4973 21.8415 37.9076 22.5 36.25 22.5C34.5924 22.5 33.0027 21.8415 31.8306 20.6694C30.6585 19.4973 30 17.9076 30 16.25C30 14.5924 30.6585 13.0027 31.8306 11.8306C33.0027 10.6585 34.5924 10 36.25 10C37.9076 10 39.4973 10.6585 40.6694 11.8306C41.8415 13.0027 42.5 14.5924 42.5 16.25ZM22.5 36.25C22.5 31.99 24.4375 28.18 27.4825 25.6575C26.7264 25.2259 25.8706 24.9993 25 25H8.75C7.42392 25 6.15215 25.5268 5.21447 26.4645C4.27678 27.4021 3.75 28.6739 3.75 30C3.75 30 3.75 40 16.875 40C19.2575 40 21.2075 39.67 22.8025 39.1325C22.6004 38.185 22.499 37.2188 22.5 36.25ZM25 36.25C25 39.2337 26.1853 42.0952 28.295 44.2049C30.4048 46.3147 33.2663 47.5 36.25 47.5C39.2337 47.5 42.0952 46.3147 44.2049 44.2049C46.3147 42.0952 47.5 39.2337 47.5 36.25C47.5 33.2663 46.3147 30.4048 44.2049 28.295C42.0952 26.1853 39.2337 25 36.25 25C33.2663 25 30.4048 26.1853 28.295 28.295C26.1853 30.4048 25 33.2663 25 36.25ZM41.25 28.75C41.5815 28.75 41.8995 28.8817 42.1339 29.1161C42.3683 29.3505 42.5 29.6685 42.5 30V33.75C42.5 34.0815 42.3683 34.3995 42.1339 34.6339C41.8995 34.8683 41.5815 35 41.25 35H37.5C37.1685 35 36.8505 34.8683 36.6161 34.6339C36.3817 34.3995 36.25 34.0815 36.25 33.75C36.25 33.4185 36.3817 33.1005 36.6161 32.8661C36.8505 32.6317 37.1685 32.5 37.5 32.5H38.67C37.7204 31.9744 36.6255 31.7721 35.5508 31.9237C34.476 32.0752 33.4798 32.5724 32.7125 33.34C32.475 33.5583 32.1623 33.6763 31.8399 33.6694C31.5174 33.6625 31.21 33.5312 30.9821 33.3029C30.7542 33.0747 30.6233 32.7672 30.6169 32.4447C30.6104 32.1222 30.7289 31.8097 30.9475 31.5725C32.1148 30.4051 33.6347 29.6556 35.2714 29.4399C36.9081 29.2243 38.5702 29.5548 40 30.38V30C40 29.6685 40.1317 29.3505 40.3661 29.1161C40.6005 28.8817 40.9185 28.75 41.25 28.75ZM39.06 42.58C38.0034 43.0067 36.8636 43.187 35.7269 43.1073C34.5902 43.0276 33.4867 42.69 32.5 42.12V42.5C32.5 42.8315 32.3683 43.1495 32.1339 43.3839C31.8995 43.6183 31.5815 43.75 31.25 43.75C30.9185 43.75 30.6005 43.6183 30.3661 43.3839C30.1317 43.1495 30 42.8315 30 42.5V38.75C30 38.4185 30.1317 38.1005 30.3661 37.8661C30.6005 37.6317 30.9185 37.5 31.25 37.5H35C35.3315 37.5 35.6495 37.6317 35.8839 37.8661C36.1183 38.1005 36.25 38.4185 36.25 38.75C36.25 39.0815 36.1183 39.3995 35.8839 39.6339C35.6495 39.8683 35.3315 40 35 40H33.83C33.955 40.07 34.0842 40.1342 34.2175 40.1925C35.1411 40.6034 36.1676 40.7246 37.1615 40.5403C38.1554 40.356 39.0701 39.8747 39.785 39.16C40.0208 38.9323 40.3365 38.8063 40.6643 38.8092C40.992 38.812 41.3055 38.9435 41.5373 39.1752C41.769 39.407 41.9005 39.7205 41.9033 40.0482C41.9062 40.376 41.7802 40.6917 41.5525 40.9275C40.8425 41.64 39.9925 42.205 39.06 42.58Z" fill="white"/>
</svg>
