<svg width="50" height="50" viewBox="0 0 50 50" fill="none" xmlns="http://www.w3.org/2000/svg">
<path d="M35.4165 8.33337H14.5832C8.33317 8.33337 4.1665 11.4584 4.1665 18.75V26.1667C4.1665 26.9375 4.95817 27.4167 5.64567 27.1042C7.68734 26.1667 10.0415 25.8125 12.5207 26.25C17.9998 27.2292 22.0207 32.3125 21.8748 37.875C21.854 38.75 21.729 39.6042 21.4998 40.4375C21.3332 41.0834 21.854 41.6875 22.5207 41.6875H35.4165C41.6665 41.6875 45.8332 38.5625 45.8332 31.2709V18.75C45.8332 11.4584 41.6665 8.33337 35.4165 8.33337ZM24.9998 30.2084C22.1248 30.2084 19.7915 27.875 19.7915 25C19.7915 22.125 22.1248 19.7917 24.9998 19.7917C27.8748 19.7917 30.2082 22.125 30.2082 25C30.2082 27.875 27.8748 30.2084 24.9998 30.2084ZM40.104 29.1667C40.104 30.0209 39.3957 30.7292 38.5415 30.7292C37.6873 30.7292 36.979 30.0209 36.979 29.1667V20.8334C36.979 19.9792 37.6873 19.2709 38.5415 19.2709C39.3957 19.2709 40.104 19.9792 40.104 20.8334V29.1667Z" fill="white"/>
<path d="M10.4168 29.1666C7.81266 29.1666 5.4585 30.3958 3.93766 32.2708C2.771 33.7083 2.0835 35.5208 2.0835 37.5C2.0835 42.1041 5.8335 45.8333 10.4168 45.8333C14.0418 45.8333 17.146 43.5208 18.271 40.2708C18.5835 39.4166 18.7502 38.4791 18.7502 37.5C18.7502 32.9166 15.021 29.1666 10.4168 29.1666ZM15.3335 41.125C15.2918 41.25 15.2085 41.375 15.1252 41.4583L13.6252 42.9375C13.4377 43.1458 13.1877 43.2291 12.9168 43.2291C12.646 43.2291 12.3752 43.1458 12.1877 42.9375C11.8543 42.625 11.8127 42.125 12.021 41.75H7.8335C6.50016 41.75 5.41683 40.6666 5.41683 39.3125V39.1041C5.41683 38.5208 5.87516 38.0833 6.43766 38.0833C7.00016 38.0833 7.4585 38.5208 7.4585 39.1041V39.3125C7.4585 39.5416 7.62516 39.7291 7.85433 39.7291H12.0418C11.8335 39.3333 11.8752 38.8541 12.2085 38.5208C12.6043 38.125 13.2502 38.125 13.6252 38.5208L15.1252 40.0208C15.2085 40.1041 15.2918 40.2291 15.3543 40.3541C15.4377 40.5833 15.4377 40.875 15.3335 41.125ZM15.4168 35.8958C15.4168 36.4791 14.9585 36.9166 14.396 36.9166C13.8335 36.9166 13.3752 36.4791 13.3752 35.8958V35.6875C13.3752 35.4583 13.2085 35.2708 12.9793 35.2708H8.81266C9.021 35.6666 8.97933 36.1458 8.646 36.4791C8.4585 36.6666 8.2085 36.7708 7.91683 36.7708C7.66683 36.7708 7.396 36.6666 7.2085 36.4791L5.7085 34.9791C5.62516 34.8958 5.54183 34.7708 5.47933 34.6458C5.396 34.3958 5.396 34.125 5.47933 33.875C5.54183 33.7708 5.60433 33.625 5.7085 33.5416L7.2085 32.0625C7.60433 31.6458 8.25016 31.6458 8.62516 32.0625C8.9585 32.375 9.00016 32.875 8.79183 33.25H12.9793C14.3127 33.25 15.396 34.3333 15.396 35.6875V35.8958H15.4168Z" fill="white"/>
</svg>
