<svg width="50" height="50" viewBox="0 0 50 50" fill="none" xmlns="http://www.w3.org/2000/svg">
<path d="M45.8333 31.25C45.8333 39.3125 39.3125 45.8333 31.25 45.8333L33.4375 42.1875" stroke="white" stroke-width="3.125" stroke-linecap="round" stroke-linejoin="round"/>
<path d="M4.1665 18.75C4.1665 10.6875 10.6873 4.16663 18.7498 4.16663L16.5623 7.81246" stroke="white" stroke-width="3.125" stroke-linecap="round" stroke-linejoin="round"/>
<path d="M45.8333 8.74996V8.97913C45.8333 9.56246 45.375 10.0208 44.7917 10.0208H26.0417C25.4583 10.0208 25 9.56246 25 8.97913V8.74996C25 5.08329 25.9167 4.16663 29.625 4.16663H41.2083C44.9167 4.16663 45.8333 5.08329 45.8333 8.74996Z" fill="white"/>
<path d="M26.0417 12.1042C25.4583 12.1042 25 12.5626 25 13.1459V15.2292V17.2917C25 20.9584 25.9167 21.8751 29.625 21.8751H41.2083C44.9167 21.8751 45.8333 20.9584 45.8333 17.2917V15.2292V13.1459C45.8333 12.5626 45.375 12.1042 44.7917 12.1042H26.0417Z" fill="white"/>
<path d="M24.9998 32.7083V32.9375C24.9998 33.5208 24.5415 33.9792 23.9582 33.9792H5.20817C4.62484 33.9792 4.1665 33.5208 4.1665 32.9375V32.7083C4.1665 29.0417 5.08317 28.125 8.7915 28.125H20.3748C24.0832 28.125 24.9998 29.0417 24.9998 32.7083Z" fill="white"/>
<path d="M5.20817 36.0626C4.62484 36.0626 4.1665 36.521 4.1665 37.1043V39.1876V41.2501C4.1665 44.9168 5.08317 45.8335 8.7915 45.8335H20.3748C24.0832 45.8335 24.9998 44.9168 24.9998 41.2501V39.1876V37.1043C24.9998 36.521 24.5415 36.0626 23.9582 36.0626H5.20817V36.0626Z" fill="white"/>
</svg>
