<svg width="50" height="50" viewBox="0 0 50 50" fill="none" xmlns="http://www.w3.org/2000/svg">
<path d="M36.6668 11.0626L24.896 4.72925C23.646 4.06258 22.1668 4.06258 20.9168 4.72925L9.16683 11.0626C8.31266 11.5417 7.771 12.4584 7.771 13.4584C7.771 14.4792 8.29183 15.3959 9.16683 15.8542L20.9377 22.1876C21.5627 22.5209 22.2502 22.6876 22.9168 22.6876C23.5835 22.6876 24.2918 22.5209 24.896 22.1876L36.6668 15.8542C37.521 15.3959 38.0627 14.4792 38.0627 13.4584C38.0627 12.4584 37.521 11.5417 36.6668 11.0626Z" fill="white"/>
<path d="M18.9998 24.396L8.06234 18.9377C7.20817 18.5002 6.24984 18.5627 5.43734 19.0419C4.64567 19.5419 4.1665 20.396 4.1665 21.3335V31.6669C4.1665 33.4585 5.1665 35.0627 6.77067 35.8752L17.7082 41.3335C18.0832 41.521 18.4998 41.6252 18.9165 41.6252C19.3957 41.6252 19.8957 41.4794 20.3332 41.2294C21.1248 40.7294 21.604 39.8752 21.604 38.9377V28.6044C21.5832 26.8127 20.5832 25.2085 18.9998 24.396Z" fill="white"/>
<path d="M41.6672 21.3335V26.4585C40.6672 26.1669 39.6047 26.0419 38.5422 26.0419C35.7088 26.0419 32.938 27.021 30.7505 28.771C27.7505 31.1252 26.0422 34.6877 26.0422 38.5419C26.0422 39.5627 26.1672 40.5835 26.438 41.5627C26.1255 41.521 25.813 41.396 25.5213 41.2085C24.7297 40.7294 24.2505 39.8752 24.2505 38.9377V28.6044C24.2505 26.8127 25.2505 25.2085 26.8338 24.396L37.7713 18.9377C38.6255 18.5002 39.5838 18.5627 40.3963 19.0419C41.188 19.5419 41.6672 20.396 41.6672 21.3335Z" fill="white"/>
<path d="M45.7915 32.6459C44.0832 30.5417 41.479 29.2084 38.5415 29.2084C36.3332 29.2084 34.2915 29.9792 32.6873 31.2709C30.5207 32.9792 29.1665 35.625 29.1665 38.5834C29.1665 40.3334 29.6665 42 30.5207 43.4167C31.0832 44.3542 31.7915 45.1667 32.6248 45.8334H32.6457C34.2498 47.1667 36.3123 47.9584 38.5415 47.9584C40.9165 47.9584 43.0623 47.0834 44.7082 45.625C45.4373 45 46.0623 44.25 46.5623 43.4167C47.4165 42 47.9165 40.3334 47.9165 38.5834C47.9165 36.3334 47.1248 34.25 45.7915 32.6459ZM43.2498 37.4167L38.2498 42.0417C37.9582 42.3125 37.5623 42.4584 37.1873 42.4584C36.7915 42.4584 36.3957 42.3125 36.0832 42L33.7707 39.6875C33.1665 39.0834 33.1665 38.0834 33.7707 37.4792C34.3748 36.875 35.3748 36.875 35.979 37.4792L37.229 38.7292L41.1248 35.125C41.7498 34.5417 42.7498 34.5834 43.3332 35.2084C43.9373 35.8542 43.8957 36.8334 43.2498 37.4167Z" fill="white"/>
</svg>
