<svg width="50" height="50" viewBox="0 0 50 50" fill="none" xmlns="http://www.w3.org/2000/svg">
<path d="M33.729 4.16663H16.2707C8.68734 4.16663 4.1665 8.68746 4.1665 16.2708V33.7083C4.1665 41.3125 8.68734 45.8333 16.2707 45.8333H33.7082C41.2915 45.8333 45.8123 41.3125 45.8123 33.7291V16.2708C45.8332 8.68746 41.3123 4.16663 33.729 4.16663ZM18.979 35.2083C18.979 35.7916 18.5207 36.25 17.9373 36.25H12.1248C11.5415 36.25 11.0832 35.7916 11.0832 35.2083V25.5833C11.0832 24.2708 12.1457 23.2083 13.4582 23.2083H17.9373C18.5207 23.2083 18.979 23.6666 18.979 24.25V35.2083ZM28.9373 35.2083C28.9373 35.7916 28.479 36.25 27.8957 36.25H22.0832C21.4998 36.25 21.0415 35.7916 21.0415 35.2083V16.125C21.0415 14.8125 22.104 13.75 23.4165 13.75H26.5832C27.8957 13.75 28.9582 14.8125 28.9582 16.125V35.2083H28.9373ZM38.9165 35.2083C38.9165 35.7916 38.4582 36.25 37.8748 36.25H32.0623C31.479 36.25 31.0207 35.7916 31.0207 35.2083V27.8125C31.0207 27.2291 31.479 26.7708 32.0623 26.7708H36.5415C37.854 26.7708 38.9165 27.8333 38.9165 29.1458V35.2083Z" fill="white"/>
</svg>
