<svg width="50" height="50" viewBox="0 0 50 50" fill="none" xmlns="http://www.w3.org/2000/svg">
<path d="M10.4168 29.1666C5.81266 29.1666 2.0835 32.8958 2.0835 37.5C2.0835 42.1041 5.81266 45.8333 10.4168 45.8333C15.021 45.8333 18.7502 42.1041 18.7502 37.5C18.7502 32.8958 15.021 29.1666 10.4168 29.1666ZM12.5002 36.8333C12.5002 38.1041 11.8127 39.3125 10.7293 39.9583L9.146 40.9166C8.896 41.0833 8.60433 41.1458 8.3335 41.1458C7.81266 41.1458 7.29183 40.875 7.00016 40.3958C6.56266 39.6666 6.79183 38.6875 7.54183 38.25L9.12516 37.2916C9.271 37.2083 9.37516 37.0208 9.37516 36.8541V34.9166C9.37516 34.0416 10.0835 33.3333 10.9377 33.3333C11.7918 33.3333 12.5002 34.0416 12.5002 34.8958V36.8333Z" fill="white"/>
<path d="M35.4165 8.33337H14.5832C8.33317 8.33337 4.1665 11.4584 4.1665 18.75V26.1667C4.1665 26.9375 4.95817 27.4167 5.64567 27.1042C7.68734 26.1667 10.0415 25.8125 12.5207 26.25C17.9998 27.2292 22.0207 32.3125 21.8748 37.875C21.854 38.75 21.729 39.6042 21.4998 40.4375C21.3332 41.0834 21.854 41.6875 22.5207 41.6875H35.4165C41.6665 41.6875 45.8332 38.5625 45.8332 31.2709V18.75C45.8332 11.4584 41.6665 8.33337 35.4165 8.33337ZM24.9998 30.2084C22.1248 30.2084 19.7915 27.875 19.7915 25C19.7915 22.125 22.1248 19.7917 24.9998 19.7917C27.8748 19.7917 30.2082 22.125 30.2082 25C30.2082 27.875 27.8748 30.2084 24.9998 30.2084ZM40.104 29.1667C40.104 30.0209 39.3957 30.7292 38.5415 30.7292C37.6873 30.7292 36.979 30.0209 36.979 29.1667V20.8334C36.979 19.9792 37.6873 19.2709 38.5415 19.2709C39.3957 19.2709 40.104 19.9792 40.104 20.8334V29.1667Z" fill="white"/>
</svg>
