<svg width="50" height="50" viewBox="0 0 50 50" fill="none" xmlns="http://www.w3.org/2000/svg">
<path d="M44.7915 32.2916C45.3748 32.2916 45.8332 32.75 45.8332 33.3333V35.4166C45.8332 38.875 43.0415 41.6666 39.5832 41.6666C39.5832 38.2291 36.7707 35.4166 33.3332 35.4166C29.8957 35.4166 27.0832 38.2291 27.0832 41.6666H22.9165C22.9165 38.2291 20.104 35.4166 16.6665 35.4166C13.229 35.4166 10.4165 38.2291 10.4165 41.6666C6.95817 41.6666 4.1665 38.875 4.1665 35.4166V31.25C4.1665 30.1041 5.104 29.1666 6.24984 29.1666H26.0415C28.9165 29.1666 31.2498 26.8333 31.2498 23.9583V12.5C31.2498 11.3541 32.1873 10.4166 33.3332 10.4166H35.0832C36.5832 10.4166 37.9582 11.2291 38.7082 12.5208L40.0415 14.8541C40.229 15.1875 39.979 15.625 39.5832 15.625C36.7082 15.625 34.3748 17.9583 34.3748 20.8333V27.0833C34.3748 29.9583 36.7082 32.2916 39.5832 32.2916H44.7915Z" fill="white"/>
<path d="M16.6667 45.8333C18.9679 45.8333 20.8333 43.9679 20.8333 41.6667C20.8333 39.3655 18.9679 37.5 16.6667 37.5C14.3655 37.5 12.5 39.3655 12.5 41.6667C12.5 43.9679 14.3655 45.8333 16.6667 45.8333Z" fill="white"/>
<path d="M33.3332 45.8333C35.6344 45.8333 37.4998 43.9679 37.4998 41.6667C37.4998 39.3655 35.6344 37.5 33.3332 37.5C31.032 37.5 29.1665 39.3655 29.1665 41.6667C29.1665 43.9679 31.032 45.8333 33.3332 45.8333Z" fill="white"/>
<path d="M45.8333 26.1042V29.1667H39.5833C38.4375 29.1667 37.5 28.2292 37.5 27.0833V20.8333C37.5 19.6875 38.4375 18.75 39.5833 18.75H42.2708L45.2917 24.0417C45.6458 24.6667 45.8333 25.375 45.8333 26.1042Z" fill="white"/>
<path d="M27.2498 4.125H11.854C7.604 4.125 4.1665 7.5625 4.1665 11.8125V25.125C4.1665 26.2708 5.104 27.2083 6.24984 27.2083H25.3123C27.4373 27.2083 29.1665 25.4792 29.1665 23.3542V6.04167C29.1665 4.97917 28.3123 4.125 27.2498 4.125ZM19.9998 18.9583C19.6873 19.25 19.2915 19.3958 18.8957 19.3958C18.4998 19.3958 18.104 19.25 17.7915 18.9583L16.6873 17.8542L15.5415 19C15.229 19.3125 14.8332 19.4583 14.4373 19.4583C14.0415 19.4583 13.6457 19.3125 13.3332 19C12.729 18.3958 12.729 17.3958 13.3332 16.7917L14.479 15.6458L13.3748 14.5417C12.7707 13.9375 12.7707 12.9375 13.3748 12.3333C13.9998 11.7292 14.979 11.7292 15.604 12.3333L16.6873 13.4375L17.729 12.375C18.354 11.7708 19.3332 11.7708 19.9582 12.375C20.5623 13 20.5623 13.9792 19.9582 14.6042L18.8957 15.6458L19.9998 16.7292C20.604 17.3542 20.604 18.3333 19.9998 18.9583Z" fill="white"/>
</svg>
