<svg width="50" height="50" viewBox="0 0 50 50" fill="none" xmlns="http://www.w3.org/2000/svg">
<path d="M31.25 11.25C31.25 12.9076 30.5915 14.4973 29.4194 15.6694C28.2473 16.8415 26.6576 17.5 25 17.5C23.3424 17.5 21.7527 16.8415 20.5806 15.6694C19.4085 14.4973 18.75 12.9076 18.75 11.25C18.75 9.5924 19.4085 8.00269 20.5806 6.83058C21.7527 5.65848 23.3424 5 25 5C26.6576 5 28.2473 5.65848 29.4194 6.83058C30.5915 8.00269 31.25 9.5924 31.25 11.25ZM43.75 12.5C43.75 13.8261 43.2232 15.0979 42.2855 16.0355C41.3479 16.9732 40.0761 17.5 38.75 17.5C37.4239 17.5 36.1521 16.9732 35.2145 16.0355C34.2768 15.0979 33.75 13.8261 33.75 12.5C33.75 11.1739 34.2768 9.90215 35.2145 8.96447C36.1521 8.02678 37.4239 7.5 38.75 7.5C40.0761 7.5 41.3479 8.02678 42.2855 8.96447C43.2232 9.90215 43.75 11.1739 43.75 12.5ZM11.25 17.5C12.5761 17.5 13.8479 16.9732 14.7855 16.0355C15.7232 15.0979 16.25 13.8261 16.25 12.5C16.25 11.1739 15.7232 9.90215 14.7855 8.96447C13.8479 8.02678 12.5761 7.5 11.25 7.5C9.92392 7.5 8.65215 8.02678 7.71447 8.96447C6.77678 9.90215 6.25 11.1739 6.25 12.5C6.25 13.8261 6.77678 15.0979 7.71447 16.0355C8.65215 16.9732 9.92392 17.5 11.25 17.5ZM15 23.125C15 21.4 16.4 20 18.125 20H31.875C33.3875 20 34.65 21.075 34.9375 22.5H33.75C32.2909 22.4998 30.8777 23.0101 29.7554 23.9425C28.6331 24.8749 27.8723 26.1706 27.605 27.605C26.1706 27.8723 24.8749 28.6331 23.9425 29.7554C23.0101 30.8777 22.4998 32.2909 22.5 33.75V43.75C22.5 44.075 22.5242 44.3925 22.5725 44.7025C20.4092 44.1612 18.4888 42.9122 17.1168 41.1542C15.7447 39.3962 14.9996 37.23 15 35V23.125ZM44.895 27.605L45 27.625V23.125C45 21.4 43.6 20 41.875 20H36.5525C37.0425 20.73 37.365 21.5825 37.465 22.5H38.75C40.2091 22.4998 41.6223 23.0101 42.7446 23.9425C43.8669 24.8749 44.6277 26.1706 44.895 27.605ZM12.5 23.125C12.5 21.9675 12.85 20.895 13.4475 20H8.125C6.4 20 5 21.4 5 23.125V32.5C4.99988 33.5703 5.22885 34.6282 5.6715 35.6027C6.11416 36.5772 6.76026 37.4456 7.56639 38.1497C8.37251 38.8537 9.31999 39.3771 10.3452 39.6846C11.3703 39.9921 12.4495 40.0766 13.51 39.9325C12.8423 38.3739 12.4986 36.6957 12.5 35V23.125ZM30 30V28.75C30 27.7554 30.3951 26.8016 31.0983 26.0983C31.8016 25.3951 32.7554 25 33.75 25H38.75C39.7446 25 40.6984 25.3951 41.4016 26.0983C42.1049 26.8016 42.5 27.7554 42.5 28.75V30H43.75C44.7446 30 45.6984 30.3951 46.4016 31.0983C47.1049 31.8016 47.5 32.7554 47.5 33.75V37.5H42.5V36.25C42.5 35.9185 42.3683 35.6005 42.1339 35.3661C41.8995 35.1317 41.5815 35 41.25 35C40.9185 35 40.6005 35.1317 40.3661 35.3661C40.1317 35.6005 40 35.9185 40 36.25V37.5H32.5V36.25C32.5 35.9185 32.3683 35.6005 32.1339 35.3661C31.8995 35.1317 31.5815 35 31.25 35C30.9185 35 30.6005 35.1317 30.3661 35.3661C30.1317 35.6005 30 35.9185 30 36.25V37.5H25V33.75C25 32.7554 25.3951 31.8016 26.0983 31.0983C26.8016 30.3951 27.7554 30 28.75 30H30ZM32.5 28.75V30H40V28.75C40 28.4185 39.8683 28.1005 39.6339 27.8661C39.3995 27.6317 39.0815 27.5 38.75 27.5H33.75C33.4185 27.5 33.1005 27.6317 32.8661 27.8661C32.6317 28.1005 32.5 28.4185 32.5 28.75ZM42.5 41.25V40H47.5V43.75C47.5 44.7446 47.1049 45.6984 46.4016 46.4016C45.6984 47.1049 44.7446 47.5 43.75 47.5H28.75C27.7554 47.5 26.8016 47.1049 26.0983 46.4016C25.3951 45.6984 25 44.7446 25 43.75V40H30V41.25C30 41.5815 30.1317 41.8995 30.3661 42.1339C30.6005 42.3683 30.9185 42.5 31.25 42.5C31.5815 42.5 31.8995 42.3683 32.1339 42.1339C32.3683 41.8995 32.5 41.5815 32.5 41.25V40H40V41.25C40 41.5815 40.1317 41.8995 40.3661 42.1339C40.6005 42.3683 40.9185 42.5 41.25 42.5C41.5815 42.5 41.8995 42.3683 42.1339 42.1339C42.3683 41.8995 42.5 41.5815 42.5 41.25Z" fill="white"/>
</svg>
