<svg width="52" height="52" viewBox="0 0 52 52" fill="none" xmlns="http://www.w3.org/2000/svg">
<path d="M41.6863 12.09H40.8197L33.4963 4.76663C32.9113 4.18163 31.958 4.18163 31.3513 4.76663C30.7663 5.35163 30.7663 6.30496 31.3513 6.91163L36.5297 12.09H15.4697L20.648 6.91163C21.233 6.32663 21.233 5.3733 20.648 4.76663C20.063 4.18163 19.1097 4.18163 18.503 4.76663L11.2013 12.09H10.3347C8.38467 12.09 4.33301 12.09 4.33301 17.6366C4.33301 19.7383 4.76634 21.125 5.67634 22.035C6.19634 22.5766 6.82467 22.8583 7.49634 23.01C8.12467 23.1616 8.79634 23.1833 9.44634 23.1833H42.553C43.2247 23.1833 43.853 23.14 44.4597 23.01C46.2797 22.5766 47.6663 21.2766 47.6663 17.6366C47.6663 12.09 43.6147 12.09 41.6863 12.09Z" fill="white"/>
<path d="M41.2754 26H10.5521C9.20875 26 8.19042 27.1917 8.40708 28.5133L10.2271 39.65C10.8338 43.3767 12.4588 47.6667 19.6738 47.6667H31.8288C39.1304 47.6667 40.4304 44.005 41.2104 39.91L43.3988 28.5783C43.6588 27.235 42.6404 26 41.2754 26ZM22.9888 39.975C22.9888 40.82 22.3171 41.4917 21.4938 41.4917C20.6488 41.4917 19.9771 40.82 19.9771 39.975V32.825C19.9771 32.0017 20.6488 31.3083 21.4938 31.3083C22.3171 31.3083 22.9888 32.0017 22.9888 32.825V39.975ZM32.2621 39.975C32.2621 40.82 31.5904 41.4917 30.7454 41.4917C29.9221 41.4917 29.2288 40.82 29.2288 39.975V32.825C29.2288 32.0017 29.9221 31.3083 30.7454 31.3083C31.5904 31.3083 32.2621 32.0017 32.2621 32.825V39.975Z" fill="white"/>
</svg>
