<svg width="52" height="52" viewBox="0 0 52 52" fill="none" xmlns="http://www.w3.org/2000/svg">
<path d="M36.8333 47.6666H15.1666C14.2783 47.6666 13.5416 46.93 13.5416 46.0416C13.5416 45.1533 14.2783 44.4166 15.1666 44.4166H36.8333C37.7216 44.4166 38.4583 45.1533 38.4583 46.0416C38.4583 46.93 37.7216 47.6666 36.8333 47.6666Z" fill="white"/>
<path d="M44.0917 11.96L35.425 18.1567C34.2767 18.98 32.63 18.4817 32.1317 17.16L28.0367 6.24004C27.3433 4.35504 24.6783 4.35504 23.985 6.24004L19.8683 17.1384C19.37 18.4817 17.745 18.98 16.5967 18.135L7.92999 11.9384C6.19665 10.725 3.89999 12.4367 4.61499 14.4517L13.6283 39.6934C13.9317 40.56 14.755 41.1234 15.665 41.1234H36.3133C37.2233 41.1234 38.0467 40.5384 38.35 39.6934L47.3633 14.4517C48.1 12.4367 45.8033 10.725 44.0917 11.96ZM31.4167 31.9584H20.5833C19.695 31.9584 18.9583 31.2217 18.9583 30.3334C18.9583 29.445 19.695 28.7084 20.5833 28.7084H31.4167C32.305 28.7084 33.0417 29.445 33.0417 30.3334C33.0417 31.2217 32.305 31.9584 31.4167 31.9584Z" fill="white"/>
</svg>
