<svg width="40" height="40" viewBox="0 0 40 40" fill="none" xmlns="http://www.w3.org/2000/svg">
<path fill-rule="evenodd" clip-rule="evenodd" d="M33.5625 6.26252V13.4385C37.007 13.4994 39.7965 16.2546 39.9 19.698V33.6015C39.8493 35.3345 39.1077 36.9752 37.8404 38.1582C36.5731 39.3413 34.8854 39.9684 33.153 39.9H7.64703C5.91469 39.9684 4.22692 39.3413 2.95962 38.1582C1.69232 36.9752 0.950736 35.3345 0.900024 33.6015V12.6C0.962445 9.1261 3.7636 6.32494 7.23753 6.26252C7.23753 3.3009 9.6384 0.900024 12.6 0.900024H28.2C31.1617 0.900024 33.5625 3.3009 33.5625 6.26252ZM16.617 6.26252C18.6454 6.20784 20.3363 7.80296 20.4 9.83102C20.4637 11.8591 22.1547 13.4542 24.183 13.3995H30.6375V6.26252C30.6375 4.91633 29.5462 3.82502 28.2 3.82502H12.6C11.2538 3.82502 10.1625 4.91633 10.1625 6.26252H16.617Z" fill="white"/>
</svg>
