<svg width="43" height="40" viewBox="0 0 43 40" fill="none" xmlns="http://www.w3.org/2000/svg">
<path d="M0 7.5C0 5.51088 0.790177 3.60322 2.1967 2.1967C3.60322 0.790177 5.51088 0 7.5 0H27.5C29.4891 0 31.3968 0.790177 32.8033 2.1967C34.2098 3.60322 35 5.51088 35 7.5V15.5225C32.5483 14.8275 29.9517 14.8275 27.5 15.5225V8.75C27.5 8.41848 27.3683 8.10054 27.1339 7.86612C26.8995 7.6317 26.5815 7.5 26.25 7.5C25.9185 7.5 25.6005 7.6317 25.3661 7.86612C25.1317 8.10054 25 8.41848 25 8.75V16.5025C22.242 17.9101 20.0398 20.2074 18.75 23.0225V18.75C18.75 18.4185 18.6183 18.1005 18.3839 17.8661C18.1495 17.6317 17.8315 17.5 17.5 17.5C17.1685 17.5 16.8505 17.6317 16.6161 17.8661C16.3817 18.1005 16.25 18.4185 16.25 18.75V26.25C16.2498 26.4191 16.284 26.5865 16.3503 26.742C16.4167 26.8976 16.514 27.038 16.6362 27.1549C16.7584 27.2717 16.9031 27.3625 17.0615 27.4219C17.2198 27.4812 17.3886 27.5078 17.5575 27.5C17.3212 30.0863 17.8222 32.6866 19.0025 35H7.5C5.51088 35 3.60322 34.2098 2.1967 32.8033C0.790177 31.3968 0 29.4891 0 27.5V7.5ZM8.75 12.5C8.41848 12.5 8.10054 12.6317 7.86612 12.8661C7.6317 13.1005 7.5 13.4185 7.5 13.75V26.25C7.5 26.5815 7.6317 26.8995 7.86612 27.1339C8.10054 27.3683 8.41848 27.5 8.75 27.5C9.08152 27.5 9.39946 27.3683 9.63388 27.1339C9.8683 26.8995 10 26.5815 10 26.25V13.75C10 13.4185 9.8683 13.1005 9.63388 12.8661C9.39946 12.6317 9.08152 12.5 8.75 12.5ZM25.165 21.105C25.345 21.7466 25.395 22.4177 25.312 23.0788C25.229 23.74 25.0147 24.3779 24.6816 24.9551C24.3485 25.5322 23.9035 26.037 23.3726 26.4397C22.8416 26.8424 22.2356 27.1349 21.59 27.3L20.435 27.595C20.3515 28.4401 20.3599 29.2917 20.46 30.135L21.335 30.3425C21.9978 30.4992 22.6216 30.7897 23.1682 31.1962C23.7147 31.6027 24.1724 32.1165 24.5133 32.7062C24.8541 33.2959 25.0709 33.949 25.1503 34.6254C25.2297 35.3019 25.17 35.9874 24.975 36.64L24.6575 37.6975C25.3042 38.2075 26 38.6383 26.745 38.99L27.5575 38.13C28.0252 37.6347 28.5893 37.2402 29.215 36.9708C29.8407 36.7013 30.5148 36.5626 31.1961 36.563C31.8773 36.5635 32.5513 36.7032 33.1766 36.9735C33.8019 37.2438 34.3654 37.6391 34.8325 38.135L35.675 39.03C36.4083 38.6917 37.0933 38.2767 37.73 37.785L37.34 36.395C37.16 35.7534 37.11 35.0823 37.193 34.4212C37.276 33.76 37.4903 33.1221 37.8234 32.5449C38.1565 31.9678 38.6015 31.463 39.1324 31.0603C39.6634 30.6576 40.2694 30.3651 40.915 30.2L42.065 29.905C42.1487 29.0591 42.1403 28.2066 42.04 27.3625L41.17 27.1575C40.5069 27.0008 39.8828 26.7102 39.3361 26.3036C38.7893 25.897 38.3315 25.3829 37.9906 24.7929C37.6497 24.2029 37.4331 23.5495 37.3538 22.8728C37.2746 22.196 37.3346 21.5102 37.53 20.8575L37.845 19.805C37.2011 19.2941 36.5006 18.8588 35.7575 18.5075L34.945 19.3675C34.4774 19.8629 33.9135 20.2576 33.2879 20.5273C32.6623 20.797 31.9882 20.9359 31.307 20.9357C30.6257 20.9355 29.9517 20.796 29.3263 20.5259C28.7009 20.2558 28.1372 19.8608 27.67 19.365L26.8275 18.47C26.0982 18.8061 25.4089 19.2229 24.7725 19.7125L25.165 21.105ZM31.25 31.25C30.587 31.25 29.9511 30.9866 29.4822 30.5178C29.0134 30.0489 28.75 29.413 28.75 28.75C28.75 28.087 29.0134 27.4511 29.4822 26.9822C29.9511 26.5134 30.587 26.25 31.25 26.25C31.913 26.25 32.5489 26.5134 33.0178 26.9822C33.4866 27.4511 33.75 28.087 33.75 28.75C33.75 29.413 33.4866 30.0489 33.0178 30.5178C32.5489 30.9866 31.913 31.25 31.25 31.25Z" fill="white"/>
</svg>
