<svg width="52" height="52" viewBox="0 0 52 52" fill="none" xmlns="http://www.w3.org/2000/svg">
<path d="M37.9818 16.835C37.8301 16.8134 37.6784 16.8134 37.5268 16.835C34.1684 16.7267 31.5034 13.975 31.5034 10.595C31.5034 7.15004 34.2984 4.33337 37.7651 4.33337C41.2101 4.33337 44.0268 7.12837 44.0268 10.595C44.0051 13.975 41.3401 16.7267 37.9818 16.835Z" fill="white"/>
<path d="M45.0449 31.8501C42.6182 33.4751 39.2166 34.0818 36.0749 33.6701C36.8982 31.8935 37.3316 29.9218 37.3532 27.8418C37.3532 25.6751 36.8766 23.6168 35.9666 21.8185C39.1732 21.3851 42.5749 21.9918 45.0232 23.6168C48.4466 25.8701 48.4466 29.5751 45.0449 31.8501Z" fill="white"/>
<path d="M13.9534 16.835C14.1051 16.8134 14.2567 16.8134 14.4084 16.835C17.7667 16.7267 20.4317 13.975 20.4317 10.595C20.4317 7.12837 17.6367 4.33337 14.1701 4.33337C10.7251 4.33337 7.93005 7.12837 7.93005 10.595C7.93005 13.975 10.5951 16.7267 13.9534 16.835Z" fill="white"/>
<path d="M14.1917 27.8416C14.1917 29.9433 14.6467 31.9366 15.47 33.7349C12.415 34.0599 9.23001 33.4099 6.89001 31.8716C3.46668 29.5966 3.46668 25.8916 6.89001 23.6166C9.20834 22.0566 12.48 21.4283 15.5567 21.7749C14.6683 23.5949 14.1917 25.6533 14.1917 27.8416Z" fill="white"/>
<path d="M26.2601 34.385C26.0868 34.3633 25.8918 34.3633 25.6968 34.385C21.7101 34.255 18.5251 30.9833 18.5251 26.9533C18.5468 22.8367 21.8618 19.5 26.0001 19.5C30.1168 19.5 33.4535 22.8367 33.4535 26.9533C33.4318 30.9833 30.2685 34.255 26.2601 34.385Z" fill="white"/>
<path d="M19.2184 38.87C15.9467 41.0583 15.9467 44.655 19.2184 46.8216C22.9451 49.3133 29.0551 49.3133 32.7817 46.8216C36.0534 44.6333 36.0534 41.0366 32.7817 38.87C29.0767 36.3783 22.9667 36.3783 19.2184 38.87Z" fill="white"/>
</svg>
