<svg width="52" height="52" viewBox="0 0 52 52" fill="none" xmlns="http://www.w3.org/2000/svg">
<path d="M19.5 4.33337C13.8234 4.33337 9.20837 8.94837 9.20837 14.625C9.20837 20.1934 13.5634 24.7 19.24 24.895C19.4134 24.8734 19.5867 24.8734 19.7167 24.895C19.76 24.895 19.7817 24.895 19.825 24.895C19.8467 24.895 19.8467 24.895 19.8684 24.895C25.415 24.7 29.77 20.1934 29.7917 14.625C29.7917 8.94837 25.1767 4.33337 19.5 4.33337Z" fill="white"/>
<path d="M30.5066 30.6584C24.4616 26.6284 14.6032 26.6284 8.51492 30.6584C5.76325 32.5 4.24658 34.9917 4.24658 37.6567C4.24658 40.3217 5.76325 42.7917 8.49325 44.6117C11.5266 46.6484 15.5132 47.6667 19.4999 47.6667C23.4866 47.6667 27.4732 46.6484 30.5066 44.6117C33.2366 42.77 34.7533 40.3 34.7533 37.6134C34.7316 34.9484 33.2366 32.4784 30.5066 30.6584Z" fill="white"/>
<path d="M43.3117 15.9032C43.6583 20.1066 40.6683 23.7899 36.53 24.2882C36.5083 24.2882 36.5083 24.2882 36.4867 24.2882H36.4217C36.2917 24.2882 36.1617 24.2882 36.0533 24.3316C33.9517 24.4399 32.0233 23.7682 30.5717 22.5332C32.8033 20.5399 34.0817 17.5499 33.8217 14.2999C33.67 12.5449 33.0633 10.9416 32.1533 9.57656C32.9767 9.16489 33.93 8.90489 34.905 8.81822C39.1517 8.44989 42.9433 11.6132 43.3117 15.9032Z" fill="white"/>
<path d="M47.645 35.945C47.4716 38.0467 46.1283 39.8667 43.875 41.1017C41.7083 42.2934 38.9783 42.8567 36.27 42.7917C37.83 41.3834 38.74 39.6284 38.9133 37.765C39.13 35.0784 37.8516 32.5 35.295 30.4417C33.8433 29.2934 32.1533 28.3834 30.3116 27.7117C35.1 26.325 41.1233 27.2567 44.8283 30.2467C46.8216 31.85 47.84 33.865 47.645 35.945Z" fill="white"/>
</svg>
