<svg width="39" height="38" viewBox="0 0 39 38" fill="none" xmlns="http://www.w3.org/2000/svg">
<path d="M0.335938 33.7423V11.07C0.335938 10.183 0.550004 9.38469 0.978138 8.67507C1.40627 7.96545 1.98387 7.45098 2.71094 7.13165L17.9109 0.319327C18.3543 0.106442 18.8293 0 19.3359 0C19.8426 0 20.3176 0.106442 20.7609 0.319327L35.9609 7.13165C36.6893 7.45098 37.2675 7.96545 37.6956 8.67507C38.1238 9.38469 38.3372 10.183 38.3359 11.07V33.7423C38.3359 34.9132 37.9642 35.9158 37.2206 36.7504C36.4771 37.5849 35.5822 38.0014 34.5359 38H26.9359V20.9692H11.7359V38H4.13594C3.09094 38 2.19667 37.5835 1.45314 36.7504C0.709604 35.9173 0.337204 34.9146 0.335938 33.7423ZM13.6359 38V33.7423H17.4359V38H13.6359ZM17.4359 31.6134V27.3557H21.2359V31.6134H17.4359ZM21.2359 38V33.7423H25.0359V38H21.2359Z" fill="white"/>
</svg>
