<svg width="52" height="52" viewBox="0 0 52 52" fill="none" xmlns="http://www.w3.org/2000/svg">
<path d="M47.6667 26C47.6667 14.0617 37.9384 4.33337 26 4.33337C14.0617 4.33337 4.33337 14.0617 4.33337 26C4.33337 32.2834 7.04171 37.9384 11.3317 41.9034C11.3317 41.925 11.3317 41.925 11.31 41.9467C11.5267 42.1634 11.7867 42.3367 12.0034 42.5317C12.1334 42.64 12.2417 42.7484 12.3717 42.835C12.7617 43.16 13.195 43.4634 13.6067 43.7667C13.7584 43.875 13.8884 43.9617 14.04 44.07C14.4517 44.3517 14.885 44.6117 15.34 44.85C15.4917 44.9367 15.665 45.045 15.8167 45.1317C16.25 45.37 16.705 45.5867 17.1817 45.7817C17.355 45.8684 17.5284 45.955 17.7017 46.02C18.1784 46.215 18.655 46.3884 19.1317 46.54C19.305 46.605 19.4784 46.67 19.6517 46.7134C20.1717 46.865 20.6917 46.995 21.2117 47.125C21.3634 47.1684 21.515 47.2117 21.6884 47.2334C22.295 47.3634 22.9017 47.45 23.53 47.515C23.6167 47.515 23.7034 47.5367 23.79 47.5584C24.5267 47.6234 25.2634 47.6667 26 47.6667C26.7367 47.6667 27.4734 47.6234 28.1884 47.5584C28.275 47.5584 28.3617 47.5367 28.4484 47.515C29.0767 47.45 29.6834 47.3634 30.29 47.2334C30.4417 47.2117 30.5934 47.1467 30.7667 47.125C31.2867 46.995 31.8284 46.8867 32.3267 46.7134C32.5 46.6484 32.6734 46.5834 32.8467 46.54C33.3234 46.3667 33.8217 46.215 34.2767 46.02C34.45 45.955 34.6234 45.8684 34.7967 45.7817C35.2517 45.5867 35.7067 45.37 36.1617 45.1317C36.335 45.045 36.4867 44.9367 36.6384 44.85C37.0717 44.59 37.505 44.3517 37.9384 44.07C38.09 43.9834 38.22 43.875 38.3717 43.7667C38.805 43.4634 39.2167 43.16 39.6067 42.835C39.7367 42.7267 39.845 42.6184 39.975 42.5317C40.2134 42.3367 40.4517 42.1417 40.6684 41.9467C40.6684 41.925 40.6684 41.925 40.6467 41.9034C44.9584 37.9384 47.6667 32.2834 47.6667 26ZM36.7034 36.7684C30.8317 32.825 21.2117 32.825 15.2967 36.7684C14.3434 37.3967 13.5634 38.1334 12.9134 38.935C9.62004 35.5984 7.58337 31.0267 7.58337 26C7.58337 15.8384 15.8384 7.58337 26 7.58337C36.1617 7.58337 44.4167 15.8384 44.4167 26C44.4167 31.0267 42.38 35.5984 39.0867 38.935C38.4584 38.1334 37.6567 37.3967 36.7034 36.7684Z" fill="white"/>
<path d="M26 15.015C21.515 15.015 17.875 18.655 17.875 23.14C17.875 27.5383 21.32 31.1133 25.8917 31.2433C25.9567 31.2433 26.0433 31.2433 26.0867 31.2433C26.13 31.2433 26.195 31.2433 26.2383 31.2433C26.26 31.2433 26.2817 31.2433 26.2817 31.2433C30.6583 31.0917 34.1033 27.5383 34.125 23.14C34.125 18.655 30.485 15.015 26 15.015Z" fill="white"/>
</svg>
