<svg width="40" height="42" viewBox="0 0 40 42" fill="none" xmlns="http://www.w3.org/2000/svg">
<path fill-rule="evenodd" clip-rule="evenodd" d="M23.1633 1.08828L36.1633 8.30327C38.2293 9.45424 39.5072 11.6366 39.4999 14.0016V27.9983C39.5072 30.3633 38.2293 32.5456 36.1633 33.6966L23.1633 40.9116C21.1967 42.0071 18.8032 42.0071 16.8366 40.9116L3.83658 33.6966C1.77051 32.5456 0.492633 30.3633 0.499909 27.9983V14.0016C0.492633 11.6366 1.77051 9.45424 3.83658 8.30327L16.8366 1.08828C18.8032 -0.00729143 21.1967 -0.00729143 23.1633 1.08828ZM22.6649 20.7183L31.8299 15.6266H31.7433C32.4396 15.1354 32.6381 14.1897 32.1983 13.4599C31.7627 12.703 30.8119 12.4178 30.0316 12.8099L20.8883 17.9016C20.275 18.2106 19.5515 18.2106 18.9383 17.9016L9.79492 12.8099C9.0146 12.4178 8.06383 12.703 7.62825 13.4599C7.22059 14.2336 7.49827 15.1911 8.25658 15.6266L17.5083 20.7183C17.856 20.9157 18.2273 21.0685 18.6133 21.1733V30.7499C18.7048 31.5121 19.3514 32.0856 20.1191 32.0856C20.8867 32.0856 21.5333 31.5121 21.6249 30.7499V21.1516C21.986 21.0445 22.3346 20.8992 22.6649 20.7183Z" fill="white"/>
</svg>
