<svg width="56" height="55" viewBox="0 0 56 55" fill="none" xmlns="http://www.w3.org/2000/svg">
<path d="M25.8231 34.2605L21.5835 38.5C20.6897 39.3938 19.2689 39.3938 18.3522 38.523C18.1002 38.2709 17.8481 38.0417 17.596 37.7896C15.2356 35.4063 13.1043 32.9084 11.2022 30.2959C9.32308 27.6834 7.81058 25.0709 6.71058 22.4813C5.6335 19.8688 5.0835 17.3709 5.0835 14.9875C5.0835 13.4292 5.3585 11.9396 5.9085 10.5646C6.4585 9.16671 7.32933 7.88337 8.54391 6.73754C10.0106 5.29379 11.6147 4.58337 13.3106 4.58337C13.9522 4.58337 14.5939 4.72087 15.1668 4.99587C15.7627 5.27087 16.2897 5.68337 16.7022 6.27921L22.0189 13.773C22.4314 14.3459 22.7293 14.873 22.9356 15.3771C23.1418 15.8584 23.2564 16.3396 23.2564 16.775C23.2564 17.325 23.096 17.875 22.7752 18.4021C22.4772 18.9292 22.0418 19.4792 21.4918 20.0292L19.7502 21.8396C19.4981 22.0917 19.3835 22.3896 19.3835 22.7563C19.3835 22.9396 19.4064 23.1 19.4522 23.2834C19.521 23.4667 19.5897 23.6042 19.6356 23.7417C20.0481 24.498 20.7585 25.4834 21.7668 26.675C22.7981 27.8667 23.8981 29.0813 25.0897 30.2959C25.3189 30.525 25.571 30.7542 25.8002 30.9834C26.7168 31.8771 26.7397 33.3438 25.8231 34.2605Z" fill="white"/>
<path d="M50.8479 42.0063C50.8479 42.648 50.7333 43.3125 50.5042 43.9542C50.4354 44.1375 50.3667 44.3209 50.275 44.5042C49.8854 45.3292 49.3812 46.1084 48.7167 46.8417C47.5937 48.0792 46.3562 48.973 44.9583 49.5459C44.9354 49.5459 44.9125 49.5688 44.8896 49.5688C43.5375 50.1188 42.0708 50.4167 40.4896 50.4167C38.1521 50.4167 35.6542 49.8667 33.0187 48.7438C30.3833 47.6209 27.7479 46.1084 25.1354 44.2063C24.2417 43.5417 23.3479 42.8771 22.5 42.1667L29.9937 34.673C30.6354 35.1542 31.2083 35.5209 31.6896 35.773C31.8042 35.8188 31.9417 35.8875 32.1021 35.9563C32.2854 36.025 32.4687 36.048 32.675 36.048C33.0646 36.048 33.3625 35.9105 33.6146 35.6584L35.3562 33.9396C35.9292 33.3667 36.4792 32.9313 37.0062 32.6563C37.5333 32.3355 38.0604 32.175 38.6333 32.175C39.0687 32.175 39.5271 32.2667 40.0312 32.473C40.5354 32.6792 41.0625 32.9771 41.6354 33.3667L49.2208 38.7521C49.8167 39.1646 50.2292 39.6459 50.4812 40.2188C50.7104 40.7917 50.8479 41.3646 50.8479 42.0063Z" fill="white"/>
</svg>
