<svg width="51" height="50" viewBox="0 0 51 50" fill="none" xmlns="http://www.w3.org/2000/svg">
<path d="M28.1567 25C29.6237 25 30.813 23.834 30.813 22.3958C30.813 20.9576 29.6237 19.7916 28.1567 19.7916C26.6897 19.7916 25.5005 20.9576 25.5005 22.3958C25.5005 23.834 26.6897 25 28.1567 25Z" fill="white"/>
<path d="M34.4038 4.16663H16.5962C8.86125 4.16663 4.25 8.68746 4.25 16.2708V33.7083C4.25 41.3125 8.86125 45.8333 16.5962 45.8333H34.3825C42.1175 45.8333 46.7287 41.3125 46.7287 33.7291V16.2708C46.75 8.68746 42.1388 4.16663 34.4038 4.16663ZM33.7663 28.0625C31.5775 30.1875 28.4538 30.8541 25.6912 30L23.4387 32.1875C23.2475 32.375 22.9075 32.375 22.695 32.1875L20.6338 30.1666C20.3363 29.875 19.8263 29.875 19.5075 30.1666C19.1888 30.4583 19.21 30.9583 19.5075 31.2708L21.5687 33.2916C21.7812 33.5 21.7812 33.8333 21.5687 34.0208L20.6975 34.875C20.3363 35.25 19.635 35.4791 19.125 35.4166L16.8088 35.1041C16.0437 35 15.3425 34.2916 15.215 33.5416L14.8963 31.2708C14.8113 30.7708 15.0662 30.0833 15.4062 29.7291L20.4 24.8333C19.55 22.125 20.2087 19.0625 22.3975 16.9166C25.5212 13.8541 30.6213 13.8541 33.7663 16.9166C36.9113 19.9791 36.9113 24.9791 33.7663 28.0625Z" fill="white"/>
</svg>
