<svg width="50" height="50" viewBox="0 0 50 50" fill="none" xmlns="http://www.w3.org/2000/svg">
<path d="M4.16667 25C4.16667 27.3612 4.75694 29.523 5.9375 31.4855C7.11805 33.448 8.69792 34.9493 10.6771 35.9896C11.1632 36.2674 11.5194 36.6667 11.7458 37.1875C11.9722 37.7084 11.9806 38.2292 11.7708 38.75C11.5625 39.3056 11.1979 39.7049 10.6771 39.948C10.1562 40.191 9.65278 40.1737 9.16667 39.8959C6.45833 38.507 4.25347 36.5021 2.55208 33.8813C0.850694 31.2605 0 28.3 0 25C0 21.7362 0.825 18.8021 2.475 16.198C4.125 13.5938 6.28611 11.5973 8.95833 10.2084C9.44444 9.9306 9.95694 9.90421 10.4958 10.1292C11.0347 10.3542 11.425 10.7452 11.6667 11.3021C11.9097 11.7882 11.9271 12.2917 11.7188 12.8125C11.5104 13.3334 11.1632 13.7327 10.6771 14.0105C8.69792 15.0521 7.11805 16.5542 5.9375 18.5167C4.75694 20.4792 4.16667 22.6403 4.16667 25ZM29.1667 41.6667C24.5486 41.6667 20.616 40.0438 17.3687 36.798C14.1215 33.5521 12.4986 29.6195 12.5 25C12.5014 20.3806 14.125 16.448 17.3708 13.2021C20.6167 9.95629 24.5486 8.33337 29.1667 8.33337C31.1111 8.33337 32.9514 8.64587 34.6875 9.27087C36.4236 9.89587 38.0035 10.7639 39.4271 11.875C39.8785 12.2223 40.1042 12.6737 40.1042 13.2292C40.1042 13.7848 39.8958 14.2709 39.4792 14.6875C39.0972 15.0695 38.6194 15.2778 38.0458 15.3125C37.4722 15.3473 36.9431 15.191 36.4583 14.8438C35.4167 14.0799 34.2792 13.4987 33.0458 13.1C31.8125 12.7014 30.5194 12.5014 29.1667 12.5C25.6944 12.5 22.7431 13.7153 20.3125 16.1459C17.8819 18.5764 16.6667 21.5278 16.6667 25C16.6667 28.4723 17.8819 31.4237 20.3125 33.8542C22.7431 36.2848 25.6944 37.5 29.1667 37.5C30.5208 37.5 31.8146 37.3 33.0479 36.9C34.2812 36.5 35.4181 35.9188 36.4583 35.1563C36.9444 34.8091 37.4743 34.6528 38.0479 34.6875C38.6215 34.7223 39.0986 34.9306 39.4792 35.3125C39.8958 35.7292 40.1042 36.2153 40.1042 36.7709C40.1042 37.3264 39.8785 37.7778 39.4271 38.125C38.0035 39.2361 36.4236 40.1042 34.6875 40.7292C32.9514 41.3542 31.1111 41.6667 29.1667 41.6667ZM42.0833 27.0834H29.1667C28.5764 27.0834 28.0819 26.8834 27.6833 26.4834C27.2847 26.0834 27.0847 25.5889 27.0833 25C27.0819 24.4112 27.2819 23.9167 27.6833 23.5167C28.0847 23.1167 28.5792 22.9167 29.1667 22.9167H42.0833L40.2083 21.0417C39.8264 20.6598 39.6354 20.1737 39.6354 19.5834C39.6354 18.9931 39.8264 18.507 40.2083 18.125C40.5903 17.7431 41.0764 17.5521 41.6667 17.5521C42.2569 17.5521 42.7431 17.7431 43.125 18.125L48.5417 23.5417C48.9583 23.9584 49.1667 24.4445 49.1667 25C49.1667 25.5556 48.9583 26.0417 48.5417 26.4584L43.125 31.875C42.7431 32.257 42.2569 32.448 41.6667 32.448C41.0764 32.448 40.5903 32.257 40.2083 31.875C39.8264 31.4931 39.6354 31.007 39.6354 30.4167C39.6354 29.8264 39.8264 29.3403 40.2083 28.9584L42.0833 27.0834Z" fill="white"/>
</svg>
