<svg width="51" height="51" viewBox="0 0 51 51" fill="none" xmlns="http://www.w3.org/2000/svg">
<path d="M25.5 4.78125C21.4022 4.78125 17.3965 5.99638 13.9893 8.27299C10.5821 10.5496 7.92653 13.7854 6.35838 17.5713C4.79023 21.3571 4.37993 25.523 5.17936 29.542C5.9788 33.5611 7.95207 37.2528 10.8496 40.1504C13.7472 43.0479 17.4389 45.0212 21.458 45.8206C25.477 46.6201 29.6429 46.2098 33.4287 44.6416C37.2146 43.0735 40.4504 40.4179 42.727 37.0107C45.0036 33.6035 46.2188 29.5978 46.2188 25.5C46.213 20.0068 44.0282 14.7403 40.144 10.856C36.2597 6.97178 30.9932 4.78705 25.5 4.78125ZM27.8906 35.0625H27.0938V36.6562C27.0938 37.0789 26.9258 37.4843 26.627 37.7832C26.3281 38.0821 25.9227 38.25 25.5 38.25C25.0773 38.25 24.6719 38.0821 24.3731 37.7832C24.0742 37.4843 23.9063 37.0789 23.9063 36.6562V35.0625H20.7188C20.2961 35.0625 19.8907 34.8946 19.5918 34.5957C19.2929 34.2968 19.125 33.8914 19.125 33.4688C19.125 33.0461 19.2929 32.6407 19.5918 32.3418C19.8907 32.0429 20.2961 31.875 20.7188 31.875H27.8906C28.5247 31.875 29.1327 31.6231 29.5811 31.1748C30.0294 30.7265 30.2813 30.1184 30.2813 29.4844C30.2813 28.8503 30.0294 28.2423 29.5811 27.7939C29.1327 27.3456 28.5247 27.0938 27.8906 27.0938H23.1094C21.63 27.0938 20.2112 26.5061 19.1651 25.46C18.119 24.4139 17.5313 22.995 17.5313 21.5156C17.5313 20.0362 18.119 18.6174 19.1651 17.5713C20.2112 16.5252 21.63 15.9375 23.1094 15.9375H23.9063V14.3438C23.9063 13.9211 24.0742 13.5157 24.3731 13.2168C24.6719 12.9179 25.0773 12.75 25.5 12.75C25.9227 12.75 26.3281 12.9179 26.627 13.2168C26.9258 13.5157 27.0938 13.9211 27.0938 14.3438V15.9375H30.2813C30.7039 15.9375 31.1093 16.1054 31.4082 16.4043C31.7071 16.7032 31.875 17.1086 31.875 17.5312C31.875 17.9539 31.7071 18.3593 31.4082 18.6582C31.1093 18.9571 30.7039 19.125 30.2813 19.125H23.1094C22.4754 19.125 21.8673 19.3769 21.419 19.8252C20.9706 20.2735 20.7188 20.8816 20.7188 21.5156C20.7188 22.1497 20.9706 22.7577 21.419 23.2061C21.8673 23.6544 22.4754 23.9062 23.1094 23.9062H27.8906C29.37 23.9062 30.7889 24.4939 31.835 25.54C32.8811 26.5861 33.4688 28.005 33.4688 29.4844C33.4688 30.9638 32.8811 32.3826 31.835 33.4287C30.7889 34.4748 29.37 35.0625 27.8906 35.0625Z" fill="white"/>
</svg>
