<svg width="50" height="50" viewBox="0 0 50 50" fill="none" xmlns="http://www.w3.org/2000/svg">
<path d="M33.3333 20.3125H16.6667C15.2292 20.3125 14.0625 21.4792 14.0625 22.9167V25.1042C14.125 25.0833 14.1667 25.0625 14.2292 25.0417C14.4792 24.9167 14.75 24.8333 15.0208 24.75C15.1458 24.7083 15.2708 24.6667 15.4167 24.625C15.8333 24.5417 16.25 24.4792 16.6875 24.4792H33.3542C33.7917 24.4792 34.2083 24.5417 34.625 24.625C34.75 24.6458 34.875 24.7083 35.0208 24.75C35.2917 24.8333 35.5625 24.9167 35.8125 25.0417C35.875 25.0625 35.9375 25.0833 35.9792 25.1042V22.9167C35.9375 21.4792 34.7708 20.3125 33.3333 20.3125Z" fill="white"/>
<path d="M33.3333 27.6041H16.6667C15.2292 27.6041 14.0625 28.7708 14.0625 30.2083V31.25H19.7917C20.6458 31.25 21.3542 31.9583 21.3542 32.8125C21.3542 34.8125 23 36.4583 25 36.4583C27 36.4583 28.6458 34.8125 28.6458 32.8125C28.6458 31.9583 29.3542 31.25 30.2083 31.25H35.9375V30.2083C35.9375 28.7708 34.7708 27.6041 33.3333 27.6041Z" fill="white"/>
<path d="M33.3333 13.5416H16.6667C15.2292 13.5416 14.0625 14.7083 14.0625 16.1458V17.8333C14.8542 17.4375 15.7292 17.1875 16.6667 17.1875H33.3333C34.2708 17.1875 35.1458 17.4375 35.9375 17.8333V16.1458C35.9375 14.7083 34.7708 13.5416 33.3333 13.5416Z" fill="white"/>
<path d="M33.729 4.16663H16.2707C8.68734 4.16663 4.1665 8.68746 4.1665 16.2708V33.7083C4.1665 41.3125 8.68734 45.8333 16.2707 45.8333H33.7082C41.2915 45.8333 45.8123 41.3125 45.8123 33.7291V16.2708C45.8332 8.68746 41.3123 4.16663 33.729 4.16663ZM39.5832 34.375H37.4998H31.5832C30.8748 37.3541 28.1873 39.5833 24.9998 39.5833C21.8123 39.5833 19.1248 37.3541 18.4165 34.375H12.4998H10.4165C9.56234 34.375 8.854 33.6666 8.854 32.8125C8.854 31.9583 9.56234 31.25 10.4165 31.25H10.9373V30.2083V29.1666V22.9166V16.1458C10.9373 12.9791 13.4998 10.4166 16.6665 10.4166H33.3332C36.4998 10.4166 39.0623 12.9791 39.0623 16.1458V22.9166V29.1666V30.2083V31.25H39.5832C40.4373 31.25 41.1457 31.9583 41.1457 32.8125C41.1457 33.6666 40.4373 34.375 39.5832 34.375Z" fill="white"/>
</svg>
