<svg width="50" height="50" viewBox="0 0 50 50" fill="none" xmlns="http://www.w3.org/2000/svg">
<path d="M16.6665 43.75C15.5207 43.75 14.5401 43.3424 13.7248 42.5271C12.9096 41.7118 12.5012 40.7306 12.4998 39.5833V35.4167H8.33317C7.18734 35.4167 6.20678 35.009 5.3915 34.1937C4.57623 33.3785 4.16789 32.3972 4.1665 31.25V22.9167C4.1665 21.1458 4.77414 19.6618 5.98942 18.4646C7.2047 17.2674 8.68039 16.6681 10.4165 16.6667H39.5832C41.354 16.6667 42.8387 17.266 44.0373 18.4646C45.236 19.6632 45.8346 21.1472 45.8332 22.9167V31.25C45.8332 32.3958 45.4255 33.3771 44.6103 34.1937C43.795 35.0104 42.8137 35.4181 41.6665 35.4167H37.4998V39.5833C37.4998 40.7292 37.0922 41.7104 36.2769 42.5271C35.4616 43.3438 34.4804 43.7514 33.3332 43.75H16.6665ZM37.4998 14.5833H12.4998V10.4167C12.4998 9.27083 12.9082 8.29028 13.7248 7.475C14.5415 6.65972 15.5221 6.25139 16.6665 6.25H33.3332C34.479 6.25 35.4603 6.65833 36.2769 7.475C37.0936 8.29167 37.5012 9.27222 37.4998 10.4167V14.5833ZM37.4998 26.0417C38.0901 26.0417 38.5853 25.8417 38.9853 25.4417C39.3853 25.0417 39.5846 24.5472 39.5832 23.9583C39.5818 23.3694 39.3818 22.875 38.9832 22.475C38.5846 22.075 38.0901 21.875 37.4998 21.875C36.9096 21.875 36.4151 22.075 36.0165 22.475C35.6179 22.875 35.4179 23.3694 35.4165 23.9583C35.4151 24.5472 35.6151 25.0424 36.0165 25.4438C36.4179 25.8451 36.9123 26.0444 37.4998 26.0417ZM16.6665 39.5833H33.3332V31.25H16.6665V39.5833Z" fill="white"/>
</svg>
