<svg width="34" height="34" viewBox="0 0 34 34" fill="none" xmlns="http://www.w3.org/2000/svg">
<path d="M22.791 3.66504H11.4385C6.50741 3.66504 3.56769 6.60476 3.56769 11.5359V22.8748C3.56769 27.8195 6.50741 30.7592 11.4385 30.7592H22.7775C27.7086 30.7592 30.6483 27.8195 30.6483 22.8884V11.5359C30.6619 6.60476 27.7222 3.66504 22.791 3.66504ZM10.3412 18.9868C9.36584 18.9868 8.56657 18.1875 8.56657 17.2121C8.56657 16.2367 9.36584 15.4375 10.3412 15.4375C11.3166 15.4375 12.1159 16.2367 12.1159 17.2121C12.1159 18.1875 11.3166 18.9868 10.3412 18.9868ZM17.1148 18.9868C16.1394 18.9868 15.3401 18.1875 15.3401 17.2121C15.3401 16.2367 16.1394 15.4375 17.1148 15.4375C18.0902 15.4375 18.8894 16.2367 18.8894 17.2121C18.8894 18.1875 18.0902 18.9868 17.1148 18.9868ZM23.8883 18.9868C22.9129 18.9868 22.1137 18.1875 22.1137 17.2121C22.1137 16.2367 22.9129 15.4375 23.8883 15.4375C24.8637 15.4375 25.663 16.2367 25.663 17.2121C25.663 18.1875 24.8637 18.9868 23.8883 18.9868Z" fill="white"/>
</svg>
