<svg width="30" height="30" viewBox="0 0 30 30" fill="none" xmlns="http://www.w3.org/2000/svg">
<path d="M24.3765 6.64607L17.2957 3.49232C16.2565 3.03316 14.6857 3.03316 13.6465 3.49232L6.56566 6.64607C4.77732 7.44357 4.51149 8.53108 4.51149 9.11107C4.51149 9.69107 4.77732 10.7786 6.56566 11.5761L13.6465 14.7298C14.1661 14.9594 14.8186 15.0802 15.4711 15.0802C16.1236 15.0802 16.7761 14.9594 17.2957 14.7298L24.3765 11.5761C26.1648 10.7786 26.4306 9.69107 26.4306 9.11107C26.4306 8.53108 26.1769 7.44357 24.3765 6.64607Z" fill="white"/>
<path d="M15.4738 21.3262C15.0146 21.3262 14.5554 21.2295 14.1325 21.0482L5.98836 17.4232C4.74378 16.8674 3.77711 15.3812 3.77711 14.0157C3.77711 13.5203 4.17586 13.1216 4.67128 13.1216C5.1667 13.1216 5.56545 13.5203 5.56545 14.0157C5.56545 14.6682 6.1092 15.5141 6.71336 15.7799L14.8575 19.4049C15.2442 19.5741 15.6913 19.5741 16.0779 19.4049L24.2221 15.7799C24.8263 15.5141 25.37 14.6803 25.37 14.0157C25.37 13.5203 25.7688 13.1216 26.2642 13.1216C26.7596 13.1216 27.1584 13.5203 27.1584 14.0157C27.1584 15.3691 26.1917 16.8674 24.9471 17.4232L16.8029 21.0482C16.3921 21.2295 15.9329 21.3262 15.4738 21.3262Z" fill="white"/>
<path d="M15.4738 27.3188C15.0146 27.3188 14.5554 27.2222 14.1325 27.0409L5.98836 23.4159C4.64711 22.8238 3.77711 21.4826 3.77711 20.0084C3.77711 19.513 4.17586 19.1143 4.67128 19.1143C5.1667 19.1143 5.56545 19.513 5.56545 20.0084C5.56545 20.7697 6.01253 21.4584 6.71336 21.7726L14.8575 25.3976C15.2442 25.5668 15.6913 25.5668 16.0779 25.3976L24.2221 21.7726C24.9109 21.4705 25.37 20.7697 25.37 20.0084C25.37 19.513 25.7688 19.1143 26.2642 19.1143C26.7596 19.1143 27.1584 19.513 27.1584 20.0084C27.1584 21.4826 26.2884 22.8118 24.9471 23.4159L16.8029 27.0409C16.3921 27.2222 15.9329 27.3188 15.4738 27.3188Z" fill="white"/>
</svg>
