<svg width="34" height="33" viewBox="0 0 34 33" fill="none" xmlns="http://www.w3.org/2000/svg">
<path d="M30.6853 29.9212H3.59114C3.0357 29.9212 2.5751 29.4606 2.5751 28.9052C2.5751 28.3498 3.0357 27.8892 3.59114 27.8892H30.6853C31.2407 27.8892 31.7014 28.3498 31.7014 28.9052C31.7014 29.4606 31.2407 29.9212 30.6853 29.9212Z" fill="white"/>
<path d="M14.0901 5.53657V29.9213H20.1863V5.53657C20.1863 4.04639 19.5767 2.82715 17.7478 2.82715H16.5286C14.6998 2.82715 14.0901 4.04639 14.0901 5.53657Z" fill="white"/>
<path d="M4.94585 13.6647V29.9212H10.3647V13.6647C10.3647 12.1746 9.8228 10.9553 8.19715 10.9553H7.11338C5.48773 10.9553 4.94585 12.1746 4.94585 13.6647Z" fill="white"/>
<path d="M23.9118 20.4383V29.9213H29.3306V20.4383C29.3306 18.9481 28.7887 17.7289 27.1631 17.7289H26.0793C24.4537 17.7289 23.9118 18.9481 23.9118 20.4383Z" fill="white"/>
</svg>
