<svg width="33" height="33" viewBox="0 0 33 33" fill="none" xmlns="http://www.w3.org/2000/svg">
<path d="M6.9287 20.4701C3.93479 20.4701 1.50986 22.895 1.50986 25.8889C1.50986 26.905 1.79435 27.8668 2.29559 28.6796C3.23034 30.2511 4.95082 31.3078 6.9287 31.3078C8.90657 31.3078 10.6271 30.2511 11.5618 28.6796C12.063 27.8668 12.3475 26.905 12.3475 25.8889C12.3475 22.895 9.9226 20.4701 6.9287 20.4701ZM9.59747 25.4419L6.71194 28.1107C6.52228 28.2868 6.26489 28.3816 6.02104 28.3816C5.76365 28.3816 5.50625 28.2868 5.30305 28.0836L3.96188 26.7424C3.56902 26.3495 3.56902 25.6993 3.96188 25.3064C4.35475 24.9135 5.00501 24.9135 5.39788 25.3064L6.04814 25.9567L8.21567 23.9517C8.62208 23.5724 9.27234 23.5995 9.65166 24.0059C10.031 24.4123 10.0039 25.0626 9.59747 25.4419Z" fill="white"/>
<path d="M29.2814 17.0833H25.8946C24.4044 17.0833 23.1852 18.3025 23.1852 19.7927C23.1852 21.2829 24.4044 22.5021 25.8946 22.5021H29.2814C29.6607 22.5021 29.9588 22.2041 29.9588 21.8247V17.7606C29.9588 17.3813 29.6607 17.0833 29.2814 17.0833Z" fill="white"/>
<path d="M22.5485 7.46484C22.9549 7.85771 22.6162 8.46732 22.0473 8.46732L10.8303 8.45378C10.18 8.45378 9.85487 7.66805 10.3155 7.20744L12.6862 4.82316C14.6912 2.83173 17.9289 2.83173 19.9339 4.82316L22.4943 7.41065C22.5079 7.4242 22.5349 7.45129 22.5485 7.46484Z" fill="white"/>
<path d="M29.7826 25.4282C28.9563 28.2189 26.572 29.953 23.3207 29.953H14.5151C13.9867 29.953 13.6481 29.3704 13.8648 28.8827C14.2712 27.9344 14.5286 26.8642 14.5286 25.8888C14.5286 21.7841 11.1825 18.4379 7.07772 18.4379C6.04814 18.4379 5.04565 18.6547 4.12445 19.0611C3.62321 19.2779 3.01359 18.9392 3.01359 18.3973V16.4059C3.01359 12.7211 5.23531 10.1471 8.68982 9.71361C9.0285 9.65942 9.39427 9.63232 9.77359 9.63232H23.3207C23.6729 9.63232 24.0116 9.64587 24.3367 9.70006C27.0732 10.0116 29.0511 11.6779 29.7826 14.1571C29.9181 14.6041 29.593 15.0512 29.1324 15.0512H26.0301C23.0904 15.0512 20.7603 17.7335 21.397 20.7816C21.844 23.0033 23.9032 24.5341 26.1656 24.5341H29.1324C29.6065 24.5341 29.9181 24.9947 29.7826 25.4282Z" fill="white"/>
</svg>
