<svg width="33" height="34" viewBox="0 0 33 34" fill="none" xmlns="http://www.w3.org/2000/svg">
<path d="M29.6445 10.3718C28.7775 7.43205 26.3255 4.98002 23.3858 4.11301C21.1505 3.46275 19.6061 3.51694 18.5359 4.31622C17.2489 5.27806 17.0999 7.01209 17.0999 8.24487V11.6181C17.0999 14.9507 18.6172 16.6441 21.5975 16.6441H25.4856C26.7048 16.6441 28.4524 16.4951 29.4142 15.2081C30.2406 14.1514 30.3083 12.607 29.6445 10.3718Z" fill="white"/>
<path d="M25.9055 19.0555C25.5533 18.6491 25.0385 18.4188 24.5102 18.4188H19.6603C17.276 18.4188 15.3388 16.4815 15.3388 14.0972V9.24737C15.3388 8.71903 15.1085 8.20424 14.7021 7.85202C14.3092 7.4998 13.7673 7.33723 13.2525 7.40497C10.069 7.81138 7.1428 9.55895 5.23266 12.1871C3.30898 14.8288 2.60453 18.053 3.21415 21.2772C4.09471 25.9374 7.82016 29.6628 12.4939 30.5434C13.239 30.6924 13.9841 30.7602 14.7292 30.7602C17.1812 30.7602 19.5519 30.0015 21.5705 28.5249C24.1986 26.6147 25.9462 23.6886 26.3526 20.505C26.4203 19.9767 26.2578 19.4483 25.9055 19.0555Z" fill="white"/>
</svg>
