<svg width="30" height="31" viewBox="0 0 30 31" fill="none" xmlns="http://www.w3.org/2000/svg">
<path d="M19.5356 3.65721C19.0307 3.15228 18.1562 3.49711 18.1562 4.1991V8.49722C18.1562 10.2953 19.6834 11.7855 21.543 11.7855C22.713 11.7978 24.3386 11.7978 25.7303 11.7978C26.4323 11.7978 26.8018 10.9726 26.3091 10.48C24.5357 8.69427 21.3583 5.47991 19.5356 3.65721Z" fill="white"/>
<path d="M25.3239 13.4851H21.7647C18.8459 13.4851 16.469 11.1082 16.469 8.18943V4.63024C16.469 3.95288 15.9148 3.39868 15.2374 3.39868H10.0157C6.22247 3.39868 3.1559 5.86179 3.1559 10.2584V21.17C3.1559 25.5667 6.22247 28.0298 10.0157 28.0298H19.6957C23.4889 28.0298 26.5554 25.5667 26.5554 21.17V14.7167C26.5554 14.0393 26.0012 13.4851 25.3239 13.4851ZM14.2399 22.7957H9.31367C8.80873 22.7957 8.39 22.3769 8.39 21.872C8.39 21.3671 8.80873 20.9483 9.31367 20.9483H14.2399C14.7448 20.9483 15.1635 21.3671 15.1635 21.872C15.1635 22.3769 14.7448 22.7957 14.2399 22.7957ZM16.703 17.8694H9.31367C8.80873 17.8694 8.39 17.4507 8.39 16.9458C8.39 16.4408 8.80873 16.0221 9.31367 16.0221H16.703C17.2079 16.0221 17.6267 16.4408 17.6267 16.9458C17.6267 17.4507 17.2079 17.8694 16.703 17.8694Z" fill="white"/>
</svg>
