<svg width="51" height="50" viewBox="0 0 51 50" fill="none" xmlns="http://www.w3.org/2000/svg">
<path d="M10.9168 31.25C6.31266 31.25 2.5835 34.9792 2.5835 39.5833C2.5835 41.1458 3.021 42.625 3.79183 43.875C5.22933 46.2917 7.87516 47.9167 10.9168 47.9167C13.9585 47.9167 16.6043 46.2917 18.0418 43.875C18.8127 42.625 19.2502 41.1458 19.2502 39.5833C19.2502 34.9792 15.521 31.25 10.9168 31.25ZM14.021 41.1042H12.4793V42.7292C12.4793 43.5833 11.771 44.2917 10.9168 44.2917C10.0627 44.2917 9.35433 43.5833 9.35433 42.7292V41.1042H7.81266C6.9585 41.1042 6.25016 40.3958 6.25016 39.5417C6.25016 38.6875 6.9585 37.9792 7.81266 37.9792H9.35433V36.5C9.35433 35.6458 10.0627 34.9375 10.9168 34.9375C11.771 34.9375 12.4793 35.6458 12.4793 36.5V37.9792H14.021C14.8752 37.9792 15.5835 38.6875 15.5835 39.5417C15.5835 40.3958 14.896 41.1042 14.021 41.1042Z" fill="white"/>
<path d="M45.2915 26.0416H40.0832C37.7915 26.0416 35.9165 27.9166 35.9165 30.2083C35.9165 32.5 37.7915 34.375 40.0832 34.375H45.2915C45.8748 34.375 46.3332 33.9166 46.3332 33.3333V27.0833C46.3332 26.5 45.8748 26.0416 45.2915 26.0416Z" fill="white"/>
<path d="M34.938 11.2501C35.563 11.8543 35.0422 12.7918 34.1672 12.7918L16.9172 12.771C15.9172 12.771 15.4172 11.5626 16.1255 10.8543L19.7713 7.18762C22.8547 4.12512 27.8338 4.12512 30.9172 7.18762L34.8547 11.1668C34.8755 11.1876 34.9172 11.2293 34.938 11.2501Z" fill="white"/>
<path d="M46.0622 38.875C44.7913 43.1667 41.1247 45.8334 36.1247 45.8334H22.583C21.7705 45.8334 21.2497 44.9375 21.583 44.1875C22.208 42.7292 22.6038 41.0834 22.6038 39.5834C22.6038 33.2709 17.458 28.125 11.1455 28.125C9.56217 28.125 8.02051 28.4584 6.60384 29.0834C5.83301 29.4167 4.89551 28.8959 4.89551 28.0625V25C4.89551 19.3334 8.31218 15.375 13.6247 14.7084C14.1455 14.625 14.708 14.5834 15.2913 14.5834H36.1247C36.6663 14.5834 37.1872 14.6042 37.6872 14.6875C41.8955 15.1667 44.9372 17.7292 46.0622 21.5417C46.2705 22.2292 45.7705 22.9167 45.0622 22.9167H40.2913C35.7705 22.9167 32.1872 27.0417 33.1663 31.7292C33.8538 35.1459 37.0205 37.5 40.4997 37.5H45.0622C45.7913 37.5 46.2705 38.2084 46.0622 38.875Z" fill="white"/>
</svg>
