<svg width="61" height="60" viewBox="0 0 61 60" fill="none" xmlns="http://www.w3.org/2000/svg">
<path d="M22.9995 56.875C23.6745 56.875 24.2995 56.5 24.6245 55.925C24.9495 55.325 24.9495 54.625 24.5995 54.025L21.9745 49.65C21.4495 48.775 20.2995 48.475 19.3995 49C18.4995 49.525 18.2245 50.675 18.7495 51.575L19.4245 52.7C12.5245 51.075 7.34952 44.875 7.34952 37.475C7.34952 36.45 6.49952 35.6 5.47452 35.6C4.44952 35.6 3.59952 36.45 3.59952 37.475C3.62452 48.175 12.3245 56.875 22.9995 56.875Z" fill="white"/>
<path d="M55.5 24.375C56.525 24.375 57.375 23.525 57.375 22.5C57.375 11.825 48.675 3.125 38 3.125C37.325 3.125 36.7 3.5 36.375 4.075C36.05 4.675 36.05 5.375 36.4 5.975L39.025 10.35C39.55 11.225 40.7 11.525 41.6 10.975C42.475 10.45 42.775 9.3 42.225 8.4L41.55 7.275C48.475 8.9 53.625 15.1 53.625 22.5C53.625 23.525 54.475 24.375 55.5 24.375Z" fill="white"/>
<path d="M19.4996 20.5249L28.8996 15.4499C29.8996 14.9249 31.0746 14.9249 32.0746 15.4499L41.4996 20.5249C42.1746 20.8999 42.5996 21.6249 42.5996 22.4249C42.5996 23.2499 42.1746 23.9749 41.4996 24.3499L32.0996 29.4249C31.5996 29.6999 31.0496 29.8249 30.4996 29.8249C29.9496 29.8249 29.3996 29.6999 28.8996 29.4249L19.4996 24.3499C18.8246 23.9749 18.3996 23.2499 18.3996 22.4249C18.3996 21.6249 18.8246 20.8999 19.4996 20.5249Z" fill="white"/>
<path d="M33.65 31.1751L42.4 26.8001C43.075 26.4751 43.85 26.5001 44.5 26.9001C45.125 27.3001 45.5 27.9751 45.5 28.7251V37.0001C45.5 38.4251 44.7 39.7251 43.425 40.3501L34.675 44.7251C34.375 44.8751 34.05 44.9501 33.7 44.9501C33.3 44.9501 32.925 44.8501 32.575 44.6251C31.925 44.2251 31.55 43.5501 31.55 42.8001V34.5251C31.575 33.1001 32.35 31.8251 33.65 31.1751Z" fill="white"/>
<path d="M16.5252 26.9001C17.1752 26.5001 17.9502 26.4751 18.6252 26.8001L27.3752 31.1751C28.6502 31.8251 29.4502 33.1001 29.4502 34.5251V42.8001C29.4502 43.5501 29.0752 44.2251 28.4252 44.6251C28.0752 44.8501 27.7002 44.9501 27.3002 44.9501C26.9752 44.9501 26.6502 44.8751 26.3252 44.7251L17.5752 40.3501C16.3002 39.7001 15.5002 38.4251 15.5002 37.0001V28.7251C15.5002 27.9751 15.8752 27.3001 16.5252 26.9001Z" fill="white"/>
</svg>
