<svg width="61" height="60" viewBox="0 0 61 60" fill="none" xmlns="http://www.w3.org/2000/svg">
<path d="M37.9995 56.875C37.3245 56.875 36.6995 56.5 36.3745 55.925C36.0495 55.325 36.0495 54.625 36.3995 54.025L39.0245 49.65C39.5495 48.775 40.6995 48.475 41.5995 49C42.4995 49.525 42.7745 50.675 42.2495 51.575L41.5745 52.7C48.4745 51.075 53.6495 44.875 53.6495 37.475C53.6495 36.45 54.4995 35.6 55.5245 35.6C56.5495 35.6 57.3995 36.45 57.3995 37.475C57.3745 48.175 48.6745 56.875 37.9995 56.875Z" fill="white"/>
<path d="M5.50049 24.375C4.47549 24.375 3.62549 23.525 3.62549 22.5C3.62549 11.825 12.3255 3.125 23.0005 3.125C23.6755 3.125 24.3005 3.5 24.6255 4.075C24.9505 4.675 24.9505 5.375 24.6005 5.975L21.9755 10.35C21.4505 11.225 20.3005 11.525 19.4005 10.975C18.5255 10.45 18.2255 9.3 18.7755 8.4L19.4505 7.275C12.5255 8.9 7.37549 15.1 7.37549 22.5C7.37549 23.525 6.52549 24.375 5.50049 24.375Z" fill="white"/>
<path d="M41.5004 20.525L32.1004 15.45C31.1004 14.925 29.9254 14.925 28.9254 15.45L19.5004 20.525C18.8254 20.9 18.4004 21.625 18.4004 22.425C18.4004 23.25 18.8254 23.975 19.5004 24.35L28.9004 29.425C29.4004 29.7 29.9504 29.825 30.5004 29.825C31.0504 29.825 31.6004 29.7 32.1004 29.425L41.5004 24.35C42.1754 23.975 42.6004 23.25 42.6004 22.425C42.6004 21.625 42.1754 20.9 41.5004 20.525Z" fill="white"/>
<path d="M27.35 31.1751L18.6 26.8001C17.925 26.4751 17.15 26.5001 16.5 26.9001C15.875 27.3001 15.5 27.9751 15.5 28.7251V37.0001C15.5 38.4251 16.3 39.7251 17.575 40.3501L26.325 44.7251C26.625 44.8751 26.95 44.9501 27.3 44.9501C27.7 44.9501 28.075 44.8501 28.425 44.6251C29.075 44.2251 29.45 43.5501 29.45 42.8001V34.5251C29.425 33.1001 28.65 31.8251 27.35 31.1751Z" fill="white"/>
<path d="M44.4743 26.9001C43.8243 26.5001 43.0493 26.4751 42.3743 26.8001L33.6243 31.1751C32.3493 31.8251 31.5493 33.1001 31.5493 34.5251V42.8001C31.5493 43.5501 31.9243 44.2251 32.5743 44.6251C32.9243 44.8501 33.2993 44.9501 33.6993 44.9501C34.0243 44.9501 34.3493 44.8751 34.6743 44.7251L43.4243 40.3501C44.6993 39.7001 45.4993 38.4251 45.4993 37.0001V28.7251C45.4993 27.9751 45.1243 27.3001 44.4743 26.9001Z" fill="white"/>
</svg>
