<svg width="45" height="51" viewBox="0 0 45 51" fill="none" xmlns="http://www.w3.org/2000/svg">
<path d="M32.575 29.1784C34.4228 29.1784 36.0502 30.1188 37.0049 31.5473H22.4953C20.9246 31.5473 19.4182 32.1712 18.3076 33.2819C17.1969 34.3925 16.573 35.8989 16.573 37.4696V46.9453C16.573 47.329 16.6085 47.7017 16.6796 48.0634C9.71731 47.6228 4.51279 45.1022 1.21052 40.4663C0.423493 39.3626 0.000334001 38.041 0 36.6855V34.5061C0.000627772 33.0933 0.562139 31.7385 1.56114 30.7395C2.56014 29.7405 3.9149 29.179 5.3277 29.1784H32.575ZM18.9419 0.763184C20.4973 0.763184 22.0376 1.06955 23.4746 1.6648C24.9117 2.26005 26.2174 3.13251 27.3173 4.23239C28.4172 5.33226 29.2896 6.638 29.8849 8.07505C30.4801 9.5121 30.7865 11.0523 30.7865 12.6078C30.7865 14.1632 30.4801 15.7035 29.8849 17.1405C29.2896 18.5776 28.4172 19.8833 27.3173 20.9832C26.2174 22.083 24.9117 22.9555 23.4746 23.5508C22.0376 24.146 20.4973 24.4524 18.9419 24.4524C15.8005 24.4524 12.7878 23.2045 10.5665 20.9832C8.34519 18.7619 7.09728 15.7492 7.09728 12.6078C7.09728 9.4664 8.34519 6.45368 10.5665 4.23239C12.7878 2.01109 15.8005 0.763184 18.9419 0.763184ZM18.9419 37.4696C18.9419 36.5272 19.3163 35.6234 19.9826 34.957C20.649 34.2906 21.5528 33.9162 22.4953 33.9162H41.4466C42.389 33.9162 43.2929 34.2906 43.9592 34.957C44.6256 35.6234 45 36.5272 45 37.4696V46.9453C45 47.8877 44.6256 48.7915 43.9592 49.4579C43.2929 50.1243 42.389 50.4986 41.4466 50.4986H22.4953C21.5528 50.4986 20.649 50.1243 19.9826 49.4579C19.3163 48.7915 18.9419 47.8877 18.9419 46.9453V37.4696ZM42.6311 38.6541C42.0028 38.6541 41.4003 38.4045 40.956 37.9602C40.5117 37.516 40.2622 36.9134 40.2622 36.2851H37.8932C37.8932 37.5417 38.3924 38.7468 39.2809 39.6353C40.1694 40.5238 41.3745 41.023 42.6311 41.023V38.6541ZM42.6311 43.3919C41.3745 43.3919 40.1694 43.8911 39.2809 44.7796C38.3924 45.6681 37.8932 46.8732 37.8932 48.1297H40.2622C40.2622 47.5015 40.5117 46.8989 40.956 46.4546C41.4003 46.0104 42.0028 45.7608 42.6311 45.7608V43.3919ZM23.6797 36.2851C23.6797 36.9134 23.4301 37.516 22.9859 37.9602C22.5416 38.4045 21.9391 38.6541 21.3108 38.6541V41.023C22.5674 41.023 23.7724 40.5238 24.661 39.6353C25.5495 38.7468 26.0486 37.5417 26.0486 36.2851H23.6797ZM26.0486 48.1297C26.0486 46.8732 25.5495 45.6681 24.661 44.7796C23.7724 43.8911 22.5674 43.3919 21.3108 43.3919V45.7608C21.9391 45.7608 22.5416 46.0104 22.9859 46.4546C23.4301 46.8989 23.6797 47.5015 23.6797 48.1297H26.0486ZM36.1166 42.2074C36.1166 41.1079 35.6798 40.0535 34.9023 39.276C34.1249 38.4986 33.0704 38.0618 31.9709 38.0618C30.8715 38.0618 29.817 38.4986 29.0396 39.276C28.2621 40.0535 27.8253 41.1079 27.8253 42.2074C27.8253 43.3069 28.2621 44.3614 29.0396 45.1388C29.817 45.9163 30.8715 46.353 31.9709 46.353C33.0704 46.353 34.1249 45.9163 34.9023 45.1388C35.6798 44.3614 36.1166 43.3069 36.1166 42.2074Z" fill="white"/>
</svg>
