<svg width="53" height="44" viewBox="0 0 53 44" fill="none" xmlns="http://www.w3.org/2000/svg">
<path d="M15.75 20C18.3359 20 20.8158 18.9728 22.6443 17.1443C24.4728 15.3158 25.5 12.8359 25.5 10.25C25.5 7.66414 24.4728 5.18419 22.6443 3.35571C20.8158 1.52723 18.3359 0.5 15.75 0.5C13.1641 0.5 10.6842 1.52723 8.85571 3.35571C7.02723 5.18419 6 7.66414 6 10.25C6 12.8359 7.02723 15.3158 8.85571 17.1443C10.6842 18.9728 13.1641 20 15.75 20ZM22.5 30.5C22.4999 28.9271 22.9944 27.3941 23.9133 26.1176C24.8323 24.8411 26.1294 23.8859 27.621 23.387C26.9432 23.131 26.2246 22.9999 25.5 23H6C4.4087 23 2.88258 23.6321 1.75736 24.7574C0.632141 25.8826 0 27.4087 0 29C0 29 0 41 15.75 41C18.441 41 20.67 40.649 22.521 40.07C22.508 39.8803 22.501 39.6902 22.5 39.5V30.5ZM46.5 12.5C46.5 14.4891 45.7098 16.3968 44.3033 17.8033C42.8968 19.2098 40.9891 20 39 20C37.0109 20 35.1032 19.2098 33.6967 17.8033C32.2902 16.3968 31.5 14.4891 31.5 12.5C31.5 10.5109 32.2902 8.60322 33.6967 7.1967C35.1032 5.79018 37.0109 5 39 5C40.9891 5 42.8968 5.79018 44.3033 7.1967C45.7098 8.60322 46.5 10.5109 46.5 12.5ZM25.5 30.5C25.5 29.3065 25.9741 28.1619 26.818 27.318C27.6619 26.4741 28.8065 26 30 26H48C49.1935 26 50.3381 26.4741 51.182 27.318C52.0259 28.1619 52.5 29.3065 52.5 30.5V39.5C52.5 40.6935 52.0259 41.8381 51.182 42.682C50.3381 43.5259 49.1935 44 48 44H30C28.8065 44 27.6619 43.5259 26.818 42.682C25.9741 41.8381 25.5 40.6935 25.5 39.5V30.5ZM28.5 30.5V33.5C29.6935 33.5 30.8381 33.0259 31.682 32.182C32.5259 31.3381 33 30.1935 33 29H30C30 29.3978 29.842 29.7794 29.5607 30.0607C29.2794 30.342 28.8978 30.5 28.5 30.5ZM49.5 33.5V30.5C49.1022 30.5 48.7206 30.342 48.4393 30.0607C48.158 29.7794 48 29.3978 48 29H45C45 30.1935 45.4741 31.3381 46.318 32.182C47.1619 33.0259 48.3065 33.5 49.5 33.5ZM45 41H48C48 40.6022 48.158 40.2206 48.4393 39.9393C48.7206 39.658 49.1022 39.5 49.5 39.5V36.5C48.3065 36.5 47.1619 36.9741 46.318 37.818C45.4741 38.6619 45 39.8065 45 41ZM28.5 36.5V39.5C28.8978 39.5 29.2794 39.658 29.5607 39.9393C29.842 40.2206 30 40.6022 30 41H33C33 39.8065 32.5259 38.6619 31.682 37.818C30.8381 36.9741 29.6935 36.5 28.5 36.5ZM39 39.5C40.1935 39.5 41.3381 39.0259 42.182 38.182C43.0259 37.3381 43.5 36.1935 43.5 35C43.5 33.8065 43.0259 32.6619 42.182 31.818C41.3381 30.9741 40.1935 30.5 39 30.5C37.8065 30.5 36.6619 30.9741 35.818 31.818C34.9741 32.6619 34.5 33.8065 34.5 35C34.5 36.1935 34.9741 37.3381 35.818 38.182C36.6619 39.0259 37.8065 39.5 39 39.5Z" fill="white"/>
</svg>
