<svg width="52" height="52" viewBox="0 0 52 52" fill="none" xmlns="http://www.w3.org/2000/svg">
<path d="M41.6868 12.09H40.8202L33.4968 4.76663C32.9118 4.18163 31.9585 4.18163 31.3518 4.76663C30.7668 5.35163 30.7668 6.30496 31.3518 6.91163L36.5302 12.09H15.4702L20.6485 6.91163C21.2335 6.32663 21.2335 5.3733 20.6485 4.76663C20.0635 4.18163 19.1102 4.18163 18.5035 4.76663L11.2018 12.09H10.3352C8.38516 12.09 4.3335 12.09 4.3335 17.6366C4.3335 19.7383 4.76683 21.125 5.67683 22.035C6.19683 22.5766 6.82516 22.8583 7.49683 23.01C8.12516 23.1616 8.79683 23.1833 9.44683 23.1833H42.5535C43.2252 23.1833 43.8535 23.14 44.4602 23.01C46.2802 22.5766 47.6668 21.2766 47.6668 17.6366C47.6668 12.09 43.6152 12.09 41.6868 12.09Z" fill="white"/>
<path d="M41.2749 26.0001H10.5516C9.20826 26.0001 8.18993 27.1918 8.4066 28.5135L10.2266 39.6501C10.8333 43.3768 12.4583 47.6668 19.6733 47.6668H31.8283C39.1299 47.6668 40.4299 44.0051 41.2099 39.9101L43.3983 28.5785C43.6583 27.2351 42.6399 26.0001 41.2749 26.0001ZM22.9883 39.9751C22.9883 40.8201 22.3166 41.4918 21.4933 41.4918C20.6483 41.4918 19.9766 40.8201 19.9766 39.9751V32.8251C19.9766 32.0018 20.6483 31.3085 21.4933 31.3085C22.3166 31.3085 22.9883 32.0018 22.9883 32.8251V39.9751ZM32.2616 39.9751C32.2616 40.8201 31.5899 41.4918 30.7449 41.4918C29.9216 41.4918 29.2283 40.8201 29.2283 39.9751V32.8251C29.2283 32.0018 29.9216 31.3085 30.7449 31.3085C31.5899 31.3085 32.2616 32.0018 32.2616 32.8251V39.9751Z" fill="white"/>
</svg>
