<svg width="52" height="52" viewBox="0 0 52 52" fill="none" xmlns="http://www.w3.org/2000/svg">
<path d="M38.1332 11.5051L25.8915 4.91844C24.5915 4.2251 23.0532 4.2251 21.7532 4.91844L9.53321 11.5051C8.64488 12.0034 8.08154 12.9568 8.08154 13.9968C8.08154 15.0584 8.62321 16.0118 9.53321 16.4884L21.7749 23.0751C22.4249 23.4218 23.1399 23.5951 23.8332 23.5951C24.5265 23.5951 25.2632 23.4218 25.8915 23.0751L38.1332 16.4884C39.0215 16.0118 39.5849 15.0584 39.5849 13.9968C39.5849 12.9568 39.0215 12.0034 38.1332 11.5051Z" fill="white"/>
<path d="M19.7599 25.3719L8.38492 19.6952C7.49658 19.2402 6.49992 19.3052 5.65492 19.8035C4.83159 20.3235 4.33325 21.2119 4.33325 22.1869V32.9335C4.33325 34.7969 5.37325 36.4652 7.04159 37.3102L18.4166 42.9869C18.8066 43.1819 19.2399 43.2902 19.6733 43.2902C20.1716 43.2902 20.6916 43.1385 21.1466 42.8785C21.9699 42.3585 22.4683 41.4702 22.4683 40.4952V29.7485C22.4466 27.8852 21.4066 26.2169 19.7599 25.3719Z" fill="white"/>
<path d="M43.3331 22.1869V27.5169C42.2931 27.2135 41.1881 27.0835 40.0831 27.0835C37.1364 27.0835 34.2547 28.1019 31.9797 29.9219C28.8597 32.3702 27.0831 36.0752 27.0831 40.0835C27.0831 41.1452 27.2131 42.2069 27.4947 43.2252C27.1697 43.1819 26.8447 43.0519 26.5414 42.8569C25.7181 42.3585 25.2197 41.4702 25.2197 40.4952V29.7485C25.2197 27.8852 26.2597 26.2169 27.9064 25.3719L39.2814 19.6952C40.1697 19.2402 41.1664 19.3052 42.0114 19.8035C42.8347 20.3235 43.3331 21.2119 43.3331 22.1869Z" fill="white"/>
<path d="M48.9233 46.5833L47.1033 44.7633C48.0566 43.3333 48.6199 41.6 48.6199 39.7583C48.6199 34.71 44.5249 30.615 39.4766 30.615C34.4283 30.615 30.3333 34.71 30.3333 39.7583C30.3333 44.8067 34.4283 48.9017 39.4766 48.9017C41.3182 48.9017 43.0516 48.3383 44.4816 47.385L46.3016 49.205C46.6699 49.5733 47.1249 49.7467 47.6016 49.7467C48.0782 49.7467 48.5549 49.5733 48.9016 49.205C49.6382 48.4683 49.6383 47.2983 48.9233 46.5833Z" fill="white"/>
</svg>
