<svg width="52" height="52" viewBox="0 0 52 52" fill="none" xmlns="http://www.w3.org/2000/svg">
<path d="M32.5 49.2917C31.915 49.2917 31.3733 48.9667 31.0917 48.4683C30.81 47.97 30.81 47.3417 31.1133 46.8433L33.3883 43.0517C33.8433 42.2717 34.84 42.0333 35.62 42.4883C36.4 42.9433 36.6383 43.94 36.1833 44.72L35.5983 45.695C41.5783 44.2867 46.0633 38.9133 46.0633 32.5C46.0633 31.6117 46.8 30.875 47.6883 30.875C48.5767 30.875 49.3133 31.6117 49.3133 32.5C49.2917 41.7517 41.7517 49.2917 32.5 49.2917Z" fill="white"/>
<path d="M4.33325 21.125C3.44492 21.125 2.70825 20.3884 2.70825 19.5C2.70825 10.2484 10.2483 2.70837 19.4999 2.70837C20.0849 2.70837 20.6266 3.03337 20.9083 3.53171C21.1899 4.03004 21.1899 4.65837 20.8866 5.15671L18.6116 8.97004C18.1566 9.72837 17.1599 9.98837 16.3799 9.51171C15.6216 9.05671 15.3616 8.06004 15.8383 7.28004L16.4233 6.30504C10.4216 7.71337 5.95825 13.0867 5.95825 19.5C5.95825 20.3884 5.22159 21.125 4.33325 21.125Z" fill="white"/>
<path d="M23.1183 30.0084L16.315 26.3467C15.6 25.9567 14.7333 25.9567 14.0183 26.3467L7.215 30.0084C6.71666 30.2684 6.41333 30.81 6.41333 31.395C6.41333 31.98 6.71666 32.5217 7.215 32.7817L14.0183 36.4434C14.3867 36.6384 14.7767 36.725 15.1667 36.725C15.5567 36.725 15.9467 36.6384 16.315 36.4434L23.1183 32.7817C23.6167 32.5217 23.92 31.98 23.92 31.395C23.92 30.81 23.595 30.29 23.1183 30.0084Z" fill="white"/>
<path d="M12.8916 37.7217L6.56492 34.5584C6.08825 34.3201 5.52492 34.3417 5.04825 34.6234C4.61492 34.9051 4.33325 35.4034 4.33325 35.9451V41.9251C4.33325 42.9651 4.89659 43.8967 5.82825 44.3517L12.1549 47.5151C12.3716 47.6017 12.6099 47.6667 12.8483 47.6667C13.1299 47.6667 13.4116 47.5801 13.6716 47.4284C14.1266 47.1467 14.4083 46.6484 14.4083 46.1067V40.1267C14.4083 39.1084 13.8233 38.1767 12.8916 37.7217Z" fill="white"/>
<path d="M25.2636 34.6234C24.8086 34.3417 24.2453 34.3201 23.747 34.5584L17.4203 37.7217C16.4886 38.1767 15.9253 39.1084 15.9253 40.1484V46.1284C15.9253 46.6701 16.207 47.1684 16.662 47.4501C16.922 47.5801 17.2036 47.6667 17.4853 47.6667C17.7236 47.6667 17.962 47.6017 18.1786 47.4934L24.5053 44.3301C25.437 43.8751 26.0003 42.9434 26.0003 41.9034V35.9234C26.0003 35.4034 25.7186 34.9051 25.2636 34.6234Z" fill="white"/>
<path d="M44.7848 8.2984L37.9815 4.63674C37.2665 4.24674 36.3998 4.24674 35.6848 4.63674L28.8815 8.2984C28.3832 8.5584 28.0798 9.10007 28.0798 9.68507C28.0798 10.2701 28.3832 10.8117 28.8815 11.0717L35.6848 14.7334C36.0532 14.9284 36.4432 15.0151 36.8332 15.0151C37.2232 15.0151 37.6132 14.9284 37.9815 14.7334L44.7848 11.0717C45.2832 10.8117 45.5865 10.2701 45.5865 9.68507C45.5865 9.0784 45.2615 8.5584 44.7848 8.2984Z" fill="white"/>
<path d="M34.5583 15.99L28.2317 12.8267C27.755 12.5884 27.1917 12.61 26.715 12.8917C26.2817 13.1734 26 13.6717 26 14.2134V20.1934C26 21.2334 26.5633 22.165 27.495 22.62L33.8217 25.7834C34.0383 25.8917 34.2767 25.9567 34.515 25.9567C34.7967 25.9567 35.0783 25.87 35.3383 25.7184C35.7933 25.4367 36.075 24.9384 36.075 24.3967V18.4167C36.075 17.3767 35.49 16.445 34.5583 15.99Z" fill="white"/>
<path d="M46.9301 12.8917C46.4751 12.61 45.9118 12.5884 45.4135 12.8267L39.0868 15.99C38.1551 16.445 37.5918 17.3767 37.5918 18.4167V24.3967C37.5918 24.9384 37.8735 25.4367 38.3285 25.7184C38.5885 25.87 38.8701 25.9567 39.1518 25.9567C39.3901 25.9567 39.6285 25.8917 39.8451 25.7834L46.1718 22.62C47.1035 22.1434 47.6668 21.2117 47.6668 20.1934V14.2134C47.6668 13.6717 47.3851 13.1734 46.9301 12.8917Z" fill="white"/>
</svg>
