<svg width="52" height="52" viewBox="0 0 52 52" fill="none" xmlns="http://www.w3.org/2000/svg">
<path fill-rule="evenodd" clip-rule="evenodd" d="M45.5 24.1848V34.9267C45.5 40.9324 45.5 43.9353 43.6343 45.801C41.7685 47.6667 38.7657 47.6667 32.76 47.6667H19.24C13.2343 47.6667 10.2315 47.6667 8.36573 45.801C6.5 43.9353 6.5 40.9324 6.5 34.9267V23.8334H6.50006C6.50006 25.9342 6.50006 26.9846 6.86352 27.8057C7.29085 28.771 8.06241 29.5426 9.02775 29.9699C9.84881 30.3334 10.8992 30.3334 13.0001 30.3334H14.4635C15.7533 30.3334 16.3982 30.3334 16.9067 30.6428C17.0009 30.7001 17.0906 30.7647 17.1748 30.836C17.6291 31.2206 17.8331 31.8324 18.2409 33.056L18.5321 33.9296C18.9993 35.3311 19.2329 36.0318 19.7889 36.4326C20.345 36.8334 21.0836 36.8334 22.5609 36.8334H29.4392C30.9165 36.8334 31.6551 36.8334 32.2112 36.4326C32.7673 36.0318 33.0008 35.3311 33.468 33.9296L33.7592 33.056C34.1671 31.8324 34.371 31.2206 34.8253 30.836C34.9095 30.7647 34.9992 30.7001 35.0935 30.6428C35.6019 30.3334 36.2468 30.3334 37.5366 30.3334H39.0001C41.1009 30.3334 42.1513 30.3334 42.9724 29.9699C43.9377 29.5426 44.7093 28.771 45.1366 27.8057C45.4792 27.0317 45.4989 26.054 45.5 24.1848Z" fill="white"/>
<path d="M34.6667 13H37.0067C41.0105 13 43.0124 13 44.2562 14.2438C45.5 15.4876 45.5 17.4895 45.5 21.4933V39.1733C45.5 43.1771 45.5 45.179 44.2562 46.4229C43.0124 47.6667 41.0105 47.6667 37.0067 47.6667H14.9933C10.9895 47.6667 8.98764 47.6667 7.74382 46.4229C6.5 45.179 6.5 43.1771 6.5 39.1733V21.4933C6.5 17.4895 6.5 15.4876 7.74382 14.2438C8.98764 13 10.9895 13 14.9933 13H17.3333" stroke="white" stroke-width="4.24667"/>
<path d="M17.3333 21.6666L25.9999 28.1666M25.9999 28.1666L34.6666 21.6666M25.9999 28.1666L25.9999 6.49996" stroke="white" stroke-width="4.24667"/>
</svg>
