<svg width="60" height="60" viewBox="0 0 60 60" fill="none" xmlns="http://www.w3.org/2000/svg">
<path d="M10 10H14.0641C15.5144 10 16.2395 10 16.8101 10.3296C17.0079 10.4438 17.1888 10.585 17.3476 10.7492C17.8057 11.2229 17.9816 11.9263 18.3333 13.3333L18.7873 15.1493C19.055 16.2202 19.1889 16.7556 19.402 17.202C20.067 18.5945 21.3472 19.5941 22.8595 19.9015C23.3442 20 23.8961 20 25 20V20" stroke="white" stroke-width="4.91667" stroke-linecap="round"/>
<path d="M45 42.5H18.8773C18.4601 42.5 18.2514 42.5 18.0935 42.4794C16.6868 42.2964 15.7266 40.9641 15.9977 39.5718C16.0282 39.4154 16.0942 39.2175 16.2261 38.8217V38.8217C16.3726 38.3823 16.4458 38.1625 16.529 37.9696C17.2463 36.3065 18.8197 35.1724 20.6243 35.0179C20.8336 35 21.0652 35 21.5284 35H35" stroke="white" stroke-width="4.91667" stroke-linecap="round" stroke-linejoin="round"/>
<path d="M39.4613 35H24.165C21.7616 35 19.7104 33.2624 19.3153 30.8916L18.2156 24.2937C17.841 22.0461 19.5743 20 21.8529 20H46.0224C47.8498 20 49.0384 21.9232 48.2212 23.5577L43.8589 32.2821C43.0261 33.9478 41.3236 35 39.4613 35Z" fill="white" stroke="white" stroke-width="4.91667" stroke-linecap="round"/>
<circle cx="42.5" cy="50" r="2.5" fill="white"/>
<circle cx="22.5" cy="50" r="2.5" fill="white"/>
</svg>
