<svg width="46" height="46" viewBox="0 0 46 46" fill="none" xmlns="http://www.w3.org/2000/svg">
<path d="M13.625 4.25H11.75C6.125 4.25 4.25 7.60625 4.25 11.75V13.625V39.875C4.25 41.4313 6.0125 42.3125 7.25 41.375L10.4563 38.975C11.2063 38.4125 12.2563 38.4875 12.9313 39.1625L16.0438 42.2938C16.775 43.025 17.975 43.025 18.7063 42.2938L21.8563 39.1438C22.5125 38.4875 23.5625 38.4125 24.2938 38.975L27.5 41.375C28.7375 42.2938 30.5 41.4125 30.5 39.875V8C30.5 5.9375 32.1875 4.25 34.25 4.25H13.625ZM21.5938 26.2813H13.1563C12.3875 26.2813 11.75 25.6438 11.75 24.875C11.75 24.1063 12.3875 23.4688 13.1563 23.4688H21.5938C22.3625 23.4688 23 24.1063 23 24.875C23 25.6438 22.3625 26.2813 21.5938 26.2813ZM23 18.7813H11.75C10.9813 18.7813 10.3438 18.1438 10.3438 17.375C10.3438 16.6063 10.9813 15.9688 11.75 15.9688H23C23.7688 15.9688 24.4063 16.6063 24.4063 17.375C24.4063 18.1438 23.7688 18.7813 23 18.7813Z" fill="white"/>
<path d="M34.2688 4.25V7.0625C35.5063 7.0625 36.6875 7.56875 37.55 8.4125C38.45 9.33125 38.9375 10.5125 38.9375 11.75V16.2875C38.9375 17.675 38.3188 18.3125 36.9125 18.3125H33.3125V8.01875C33.3125 7.49375 33.7438 7.0625 34.2688 7.0625V4.25ZM34.2688 4.25C32.1875 4.25 30.5 5.9375 30.5 8.01875V21.125H36.9125C39.875 21.125 41.75 19.25 41.75 16.2875V11.75C41.75 9.6875 40.9063 7.8125 39.5563 6.44375C38.1875 5.09375 36.3313 4.26875 34.2688 4.25C34.2875 4.25 34.2688 4.25 34.2688 4.25Z" fill="white"/>
</svg>
